<?xml version="1.0" standalone="no"?>
<!DOCTYPE svg PUBLIC "-//W3C//DTD SVG 20010904//EN"
 "http://www.w3.org/TR/2001/REC-SVG-20010904/DTD/svg10.dtd">
<svg version="1.0" xmlns="http://www.w3.org/2000/svg"
 width="1366.000000pt" height="725.000000pt" viewBox="0 0 1366.000000 725.000000"
 preserveAspectRatio="xMidYMid meet">

<g transform="translate(0.000000,725.000000) scale(0.100000,-0.100000)"
fill="#000000" stroke="none">
<path d="M7575 5354 c-155 -5 -545 -33 -695 -50 -230 -26 -293 -33 -355 -43
-33 -5 -80 -12 -105 -16 -346 -51 -883 -208 -1211 -353 -24 -11 -109 -48 -189
-83 -80 -34 -316 -149 -525 -254 l-380 -192 -400 -6 c-220 -3 -458 -11 -530
-17 -311 -25 -540 -51 -793 -90 -34 -6 -92 -15 -130 -20 -37 -6 -89 -15 -117
-20 -27 -5 -113 -21 -190 -35 -77 -15 -178 -35 -225 -46 -164 -38 -255 -61
-280 -69 -14 -4 -45 -13 -70 -20 -224 -63 -431 -149 -555 -233 -124 -84 -215
-212 -215 -302 0 -58 18 -70 99 -68 66 2 103 10 261 58 183 56 414 95 558 95
104 0 182 -15 320 -64 131 -45 199 -55 208 -32 10 25 -17 48 -113 96 -49 23
-96 50 -105 58 -24 21 -22 49 3 57 40 13 108 85 115 121 11 58 -1 82 -43 90
-38 7 -246 -7 -478 -32 -71 -7 -142 -14 -157 -14 -49 0 -30 17 40 34 133 34
214 49 467 85 39 6 99 15 135 20 60 9 207 27 410 51 165 19 439 42 710 61 220
15 851 9 872 -8 27 -23 -4 -135 -70 -256 -31 -57 -80 -87 -144 -88 -44 -1
-137 -14 -128 -19 3 -1 57 -5 120 -9 l115 -6 12 -150 c14 -165 39 -371 53
-425 52 -208 70 -263 120 -363 106 -213 172 -206 120 12 -19 77 -36 164 -60
310 -36 213 -58 556 -37 589 6 9 71 12 270 12 464 0 1626 33 2307 66 168 8
367 18 443 21 l137 6 0 -144 c0 -291 51 -641 125 -866 32 -95 58 -134 77 -115
19 19 16 404 -6 762 -20 327 -21 339 -14 346 14 13 208 33 418 43 129 6 280
14 335 16 55 3 219 10 365 15 310 11 585 30 659 46 19 4 21 8 12 17 -9 9 -221
12 -881 12 -792 0 -871 1 -886 16 -21 22 -10 55 24 73 34 17 341 36 897 56
556 20 968 43 1175 65 322 34 452 53 624 94 120 29 144 28 157 -6 14 -36 4
-84 -32 -154 -42 -84 -105 -157 -369 -424 -256 -260 -307 -318 -391 -440 -84
-121 -109 -184 -84 -209 21 -21 37 -13 73 38 17 23 126 130 243 237 117 107
265 242 330 301 139 128 235 234 278 305 54 92 62 140 60 344 -1 113 3 198 10
219 18 57 14 128 -10 163 -12 18 -69 78 -128 134 -58 56 -103 104 -100 107 3
3 19 2 35 -3 16 -5 54 -14 84 -21 82 -18 278 -74 535 -154 61 -19 157 -49 215
-66 58 -17 130 -40 160 -50 30 -10 96 -30 145 -45 50 -14 101 -30 115 -34 14
-5 45 -14 70 -21 25 -7 56 -16 70 -21 24 -8 280 -70 365 -89 133 -29 357 -58
580 -75 252 -19 371 -48 288 -70 -16 -4 -215 -11 -443 -15 -228 -4 -431 -12
-450 -17 -126 -35 -172 -100 -119 -167 34 -43 115 -75 379 -146 80 -22 161
-44 180 -50 78 -22 177 -49 218 -60 30 -8 42 -16 42 -29 0 -45 -118 -179 -190
-216 -93 -47 -233 -74 -540 -105 -220 -22 -390 -53 -390 -71 0 -31 83 -35 380
-18 351 20 463 34 536 68 115 54 219 147 274 247 35 62 59 83 106 90 66 10
108 -2 152 -44 63 -58 86 -108 121 -264 16 -68 13 -271 -4 -362 -20 -104 -43
-153 -93 -198 -92 -83 -241 -122 -757 -198 -77 -11 -160 -25 -185 -30 -25 -5
-85 -16 -135 -26 -111 -20 -215 -52 -215 -64 0 -13 222 -13 369 0 425 37 733
76 891 112 167 38 311 199 368 413 52 193 39 398 -41 635 -24 71 -42 137 -66
240 -6 25 -16 107 -22 183 -12 152 -24 199 -71 268 -70 103 -165 133 -578 180
-316 35 -335 38 -475 67 -83 18 -203 49 -390 102 -53 15 -187 57 -295 93 -397
131 -446 147 -710 223 -436 127 -673 171 -1220 228 -431 45 -820 65 -1320 70
-234 2 -470 2 -525 0z m1180 -407 c17 -3 75 -8 130 -12 277 -16 587 -106 895
-258 140 -70 197 -112 179 -133 -46 -55 -551 -103 -1469 -139 -206 -8 -510
-19 -675 -25 -459 -16 -1054 -43 -1325 -60 -408 -26 -702 -32 -1240 -27 -311
3 -585 9 -610 14 -64 12 -64 34 2 71 46 25 123 60 206 93 35 14 70 28 95 38
12 5 67 26 122 46 55 20 118 44 140 52 178 67 579 191 725 223 210 47 414 81
625 106 148 17 480 22 1295 19 481 -2 889 -6 905 -8z m-4035 -426 c0 -35 -409
-218 -426 -190 -3 6 2 17 12 24 19 14 204 98 299 135 11 4 36 15 55 24 39 18
60 20 60 7z m8089 -404 c21 -10 28 -27 48 -127 13 -63 26 -132 29 -153 l7 -38
-39 6 c-140 21 -195 32 -329 66 -82 20 -170 44 -195 52 -25 8 -85 27 -135 42
-129 40 -245 85 -245 95 0 5 8 13 18 18 23 13 229 30 442 37 96 4 177 9 179
11 10 10 198 3 220 -9z m-8474 -50 c636 -79 1634 -87 2620 -22 121 7 238 11
260 7 46 -8 56 -31 27 -60 -51 -51 -251 -75 -897 -107 -459 -22 -1075 -49
-1490 -65 -148 -6 -387 -15 -530 -20 -143 -6 -272 -10 -287 -10 -26 0 -28 3
-28 43 0 40 22 163 36 203 4 11 14 27 23 38 18 21 46 20 266 -7z m-2598 -284
c5 -15 -111 -50 -302 -93 -25 -5 -64 -14 -87 -20 -24 -5 -88 -19 -142 -31
-161 -35 -290 -75 -387 -119 -49 -23 -96 -39 -105 -36 -40 15 -23 93 31 149
84 86 270 133 620 157 169 11 368 7 372 -7z"/>
<path d="M2410 3535 c-96 -19 -136 -33 -225 -78 -266 -133 -431 -327 -481
-567 -57 -270 72 -551 335 -729 66 -45 227 -125 271 -134 14 -3 43 -11 65 -17
209 -59 532 -46 720 30 153 62 247 124 346 226 99 105 184 241 177 287 -2 18
-10 12 -47 -38 -144 -195 -261 -284 -451 -345 -146 -47 -412 -51 -573 -10
-186 47 -352 166 -442 315 -133 222 -100 473 89 682 148 163 351 243 624 243
170 0 251 -15 370 -71 139 -64 244 -151 366 -301 60 -75 87 -59 45 25 -103
202 -343 394 -564 452 -173 45 -476 59 -625 30z"/>
<path d="M10255 3535 c-217 -38 -374 -111 -514 -241 -198 -183 -291 -456 -236
-689 75 -314 405 -568 810 -625 276 -38 601 35 809 184 104 74 230 216 278
313 27 54 38 87 32 93 -14 14 -33 -3 -99 -95 -123 -169 -265 -269 -447 -317
-115 -30 -416 -33 -523 -5 -218 58 -397 202 -493 397 l-47 95 0 115 c0 90 4
126 20 165 81 207 263 363 520 446 98 31 339 39 452 14 230 -51 414 -168 530
-340 50 -74 70 -92 84 -78 23 23 -57 155 -157 258 -66 68 -182 159 -263 206
-135 80 -320 120 -544 118 -78 -1 -173 -7 -212 -14z"/>
<path d="M430 3358 c-34 -23 -35 -26 -35 -88 0 -36 6 -96 12 -135 37 -219 44
-281 44 -386 -1 -157 5 -165 159 -210 166 -50 434 -90 721 -110 187 -13 248
-8 256 18 7 21 -118 63 -188 63 -16 0 -51 5 -77 11 -130 30 -166 70 -289 319
-108 218 -150 285 -226 363 -95 97 -203 161 -292 172 -43 6 -55 3 -85 -17z
m245 -180 c57 -59 235 -302 235 -321 0 -3 29 -53 65 -112 36 -59 65 -111 65
-115 0 -4 7 -13 15 -20 8 -7 15 -19 15 -26 0 -11 -19 -14 -85 -14 -47 0 -85 2
-85 5 0 3 6 14 13 26 10 17 9 22 -11 37 -12 10 -57 28 -100 41 -142 44 -179
72 -205 156 -38 118 -71 388 -50 408 3 4 18 7 32 7 18 0 45 -20 96 -72z"/>
<path d="M5665 2589 c-231 -4 -512 -14 -625 -23 -113 -9 -268 -21 -345 -26
-572 -42 -793 -65 -814 -85 -42 -42 380 -82 1334 -127 392 -19 1777 -15 2390
5 631 22 733 26 1155 52 342 22 628 59 654 85 16 16 -23 37 -79 44 -254 30
-412 40 -995 62 -452 17 -1916 24 -2675 13z"/>
</g>
</svg>
