<?xml version="1.0" encoding="UTF-8"?>
<svg version="1.1" xmlns="http://www.w3.org/2000/svg" width="1024" height="1024">
<path d="M0 0 C337.92 0 675.84 0 1024 0 C1024 337.92 1024 675.84 1024 1024 C686.08 1024 348.16 1024 0 1024 C0 686.08 0 348.16 0 0 Z " fill="#F4EFE4" transform="translate(0,0)"/>
<path d="M0 0 C3.5466017 0.00008095 7.09307335 -0.00683218 10.63964844 -0.02050781 C120.21293201 -0.43590706 120.21293201 -0.43590706 148.24633789 26.42749023 C166.5904726 45.55556232 185.90649414 93.32098484 185.90649414 120.18530273 C186.56407715 119.69852051 187.22166016 119.21173828 187.89916992 118.71020508 C191.65688285 116.80480851 194.90841338 116.75307979 199.02368164 116.78686523 C200.18675339 116.78255997 200.18675339 116.78255997 201.37332153 116.77816772 C203.00889824 116.77613227 204.64449958 116.7816258 206.2800293 116.79418945 C208.76675702 116.8102078 211.25184885 116.79434672 213.73852539 116.77514648 C215.33358102 116.77712986 216.92863565 116.78097549 218.52368164 116.78686523 C219.25932343 116.78079254 219.99496521 116.77471985 220.75289917 116.76846313 C226.35805359 116.84374584 231.187597 117.90814861 235.61352539 121.61499023 C240.31484903 127.76159712 241.70999198 132.54569631 240.90649414 140.18530273 C239.58632783 146.38675623 237.1542186 149.68681976 231.90649414 153.18530273 C226.17338883 155.66448341 220.18356156 155.84814003 214.03149414 156.31030273 C212.96157227 156.39666992 211.89165039 156.48303711 210.78930664 156.57202148 C208.16215715 156.78313171 205.53466203 156.98734676 202.90649414 157.18530273 C204.19233398 158.03801758 204.19233398 158.03801758 205.50415039 158.90795898 C223.77765498 171.16959818 234.77261269 187.19473259 239.27999878 208.9911499 C240.66776609 217.24453042 240.40078755 225.69401524 240.41040039 234.03686523 C240.42006599 236.02835292 240.43016019 238.01983856 240.44065857 240.01132202 C240.45850562 244.16148823 240.46419086 248.31146812 240.46240234 252.46166992 C240.46209674 257.75171422 240.50318238 263.04055724 240.55471897 268.33031654 C240.58822607 272.4347167 240.59415573 276.53882964 240.59257317 280.64335251 C240.59608643 282.59281968 240.60920342 284.54229645 240.63257027 286.49162674 C240.76911768 299.04843168 240.40482841 309.66427642 231.20336914 319.29077148 C229.94266602 320.32137695 229.94266602 320.32137695 228.65649414 321.37280273 C227.80571289 322.08823242 226.95493164 322.80366211 226.07836914 323.54077148 C223.90649414 325.18530273 223.90649414 325.18530273 221.90649414 326.18530273 C221.90284851 326.73716751 221.89920288 327.28903229 221.89544678 327.85762024 C221.85333156 333.65028596 221.78378748 339.44218059 221.69897461 345.234375 C221.67091168 347.39022066 221.64962486 349.54616641 221.63549805 351.70214844 C221.61386421 354.81814274 221.56711057 357.93295208 221.51586914 361.04858398 C221.5146405 361.99800369 221.51341187 362.9474234 221.512146 363.9256134 C221.29038809 374.27342838 218.2603091 382.78698838 211.03930664 390.24780273 C200.86339914 399.49185058 189.43440904 400.68839416 176.17504883 400.57641602 C173.91043878 400.56033075 171.6476127 400.57633432 169.38305664 400.59545898 C156.1589964 400.61567884 145.89319658 398.5248613 135.92993164 389.36889648 C120.4541355 373.0699197 126.90649414 351.79445932 126.90649414 330.18530273 C45.72649414 330.18530273 -35.45350586 330.18530273 -119.09350586 330.18530273 C-119.09350586 344.04530273 -119.09350586 357.90530273 -119.09350586 372.18530273 C-123.98123461 384.4046246 -128.33083061 391.77746347 -140.30834961 397.18530273 C-148.21937215 400.24953493 -155.44336969 400.43576339 -163.83520508 400.48046875 C-165.3265131 400.49191555 -166.81778255 400.51224996 -168.30883789 400.54199219 C-182.62171047 400.82697597 -194.04320385 398.75151883 -204.77319336 388.59545898 C-214.51602544 378.29520119 -213.71730349 365.78380132 -213.78100586 352.49780273 C-213.81021906 349.71240871 -213.84489493 346.92717064 -213.88349915 344.14189148 C-213.9057022 342.41899219 -213.92169186 340.69599732 -213.93034363 338.97297668 C-213.64156216 330.29308811 -213.64156216 330.29308811 -217.16772461 322.84936523 C-218.03010742 322.17647461 -218.89249023 321.50358398 -219.78100586 320.81030273 C-227.15847829 314.59380594 -231.24750406 308.72926751 -233.09350586 299.18530273 C-233.27445115 296.49829966 -233.37780372 293.91750826 -233.36816406 291.23486328 C-233.37327499 290.48392899 -233.37838593 289.73299469 -233.38365173 288.95930481 C-233.39745374 286.49679388 -233.39659616 284.03456633 -233.39428711 281.57202148 C-233.39818301 279.83535156 -233.40251949 278.09868257 -233.40727234 276.36201477 C-233.41471734 272.7232454 -233.41445859 269.08457304 -233.40917969 265.44580078 C-233.40342861 260.83818088 -233.42021793 256.2309687 -233.44352436 251.62341595 C-233.45844759 248.03259553 -233.45910785 244.44186867 -233.45601463 240.85102272 C-233.45651995 239.15578221 -233.46160482 237.46053531 -233.47182655 235.76532555 C-233.5195217 226.73943448 -233.13680117 217.95710659 -231.77001953 209.02441406 C-231.65529202 208.26297687 -231.54056452 207.50153967 -231.42236042 206.71702862 C-228.59995979 189.99844079 -218.92300946 175.07403748 -206.09350586 164.18530273 C-202.52024311 161.68124166 -198.86508715 159.37775466 -195.09350586 157.18530273 C-196.26526367 157.13631836 -197.43702148 157.08733398 -198.64428711 157.03686523 C-223.22169437 155.91887728 -223.22169437 155.91887728 -229.75366211 149.81811523 C-233.19523744 145.62400886 -233.38982849 142.21354338 -233.40600586 136.81030273 C-233.42276367 135.52381836 -233.43952148 134.23733398 -233.45678711 132.91186523 C-233.0053761 128.28126198 -231.74538292 124.99634503 -228.59350586 121.54077148 C-223.28214616 117.40510338 -219.38897259 117.01776063 -212.84741211 116.98217773 C-212.03988998 116.97647766 -211.23236786 116.97077759 -210.40037537 116.96490479 C-208.69319974 116.95546439 -206.98600597 116.94892462 -205.27880859 116.94506836 C-202.66919211 116.93535183 -200.06035979 116.90431583 -197.45092773 116.87280273 C-195.7914272 116.86627341 -194.13192104 116.86102266 -192.47241211 116.85717773 C-191.30350182 116.83865753 -191.30350182 116.83865753 -190.11097717 116.81976318 C-185.83057908 116.83734146 -183.18414528 117.08801897 -180.09350586 120.18530273 C-179.72741211 119.01483398 -179.36131836 117.84436523 -178.98413086 116.63842773 C-175.35867201 105.11468888 -171.61912598 93.62962616 -167.81237793 82.16467285 C-167.29935799 80.61888069 -166.7873618 79.07274831 -166.27648926 77.52624512 C-163.61695188 69.48117734 -160.8910522 61.46439245 -157.96069336 53.51342773 C-157.72942245 52.87587555 -157.49815155 52.23832336 -157.25987244 51.58145142 C-150.35331646 33.12783735 -136.9691351 19.94351281 -119.38256836 11.59545898 C-105.29042591 5.55357843 -91.25894637 3.65952593 -76.09350586 2.18530273 C-74.26239258 2.00354492 -74.26239258 2.00354492 -72.39428711 1.81811523 C-68.96296958 1.53396598 -65.53196616 1.3526384 -62.09350586 1.18530273 C-61.28150223 1.14548279 -60.4694986 1.10566284 -59.63288879 1.06463623 C-39.7552206 0.13042087 -19.89584433 -0.00244501 0 0 Z " fill="#2F4A28" transform="translate(508.093505859375,164.814697265625)"/>
<path d="M0 0 C1.88325989 -0.00200912 1.88325989 -0.00200912 3.80456543 -0.00405884 C21.94559763 0.0000853 40.01719209 0.45840399 58.125 1.5625 C59.63371674 1.65078064 59.63371674 1.65078064 61.1729126 1.74084473 C99.2414437 4.03412026 99.2414437 4.03412026 110.17724609 16.15844727 C115.48911478 22.70241894 118.97055318 30.16412036 121.75 38.0625 C122.0787915 38.9788623 122.40758301 39.89522461 122.74633789 40.83935547 C127.14037886 53.4273516 130.51524512 66.35482161 133.875 79.25 C134.069729 79.95688965 134.26445801 80.6637793 134.46508789 81.39208984 C135.11860912 84.35414852 134.98882556 87.23362257 134.875 90.25 C133.03367441 92.09132559 130.11529238 91.39402037 127.6484375 91.39453125 C121.78078635 91.35083125 116.03103202 90.99772213 110.2015686 90.34829712 C74.87501654 86.42778466 39.78882767 84.67210452 4.24425507 84.74427414 C0.95199041 84.75008473 -2.34023818 84.75010091 -5.63250732 84.7492981 C-42.04478031 84.76036409 -78.06107154 86.30957395 -114.28842163 89.96704102 C-117.23465013 90.260938 -120.18169112 90.54266715 -123.12988281 90.81616211 C-123.99784485 90.8966832 -124.86580688 90.97720428 -125.7600708 91.06016541 C-128.92707291 91.31438298 -132.07353166 91.38265414 -135.25 91.375 C-136.34570312 91.37757813 -137.44140625 91.38015625 -138.5703125 91.3828125 C-141.125 91.25 -141.125 91.25 -142.125 90.25 C-142.23856161 81.81283605 -139.46956122 73.77509342 -137 65.8125 C-136.69754364 64.8239653 -136.69754364 64.8239653 -136.38897705 63.81546021 C-122.32220155 17.84483713 -122.32220155 17.84483713 -106.92578125 8.984375 C-76.60592816 -4.81141554 -32.41016138 0.02076399 0 0 Z " fill="#F3EEE0" transform="translate(515.125,208.75)"/>
<path d="M0 0 C1.6406543 -0.00290039 1.6406543 -0.00290039 3.31445312 -0.00585938 C4.44689453 0.01798828 5.57933594 0.04183594 6.74609375 0.06640625 C8.45055664 0.0499707 8.45055664 0.0499707 10.18945312 0.03320312 C18.46280037 0.10641859 18.46280037 0.10641859 21.31632996 2.17488098 C23.84788882 5.50194673 23.75704144 8.40870353 23.72949219 12.42675781 C23.73982986 13.20762756 23.75016754 13.98849731 23.76081848 14.79302979 C23.79026755 17.36874024 23.79174605 19.94366561 23.79296875 22.51953125 C23.80794903 24.30744935 23.82467586 26.0953536 23.84307861 27.88323975 C23.88678164 32.58500806 23.90675772 37.2865897 23.92181396 41.98852539 C23.94137443 46.7880356 23.98334562 51.5873439 24.0234375 56.38671875 C24.09877155 65.80071901 24.14904366 75.21467416 24.18359375 84.62890625 C24.9878479 83.80167557 24.9878479 83.80167557 25.80834961 82.95773315 C26.51870361 82.23546539 27.22905762 81.51319763 27.9609375 80.76904297 C28.66210693 80.05255585 29.36327637 79.33606873 30.08569336 78.59786987 C39.76773266 69.51088783 53.15982381 66.96028329 65.94921875 67.31640625 C80.30716586 68.10602754 94.31348929 74.08679467 104.18359375 84.62890625 C119.37925046 102.92835667 121.74882467 123.7179742 120.18359375 146.62890625 C118.34590357 162.38136579 111.69712562 177.28807476 99.6484375 187.8515625 C85.52315446 198.72498182 68.78142718 202.53643334 51.18359375 200.62890625 C40.54385088 198.72204324 31.3814392 193.87322059 24.41796875 185.5078125 C23.18359375 183.62890625 23.18359375 183.62890625 23.18359375 181.62890625 C22.52359375 181.62890625 21.86359375 181.62890625 21.18359375 181.62890625 C21.23 182.44875 21.27640625 183.26859375 21.32421875 184.11328125 C21.37835937 185.72976563 21.37835937 185.72976563 21.43359375 187.37890625 C21.48 188.44625 21.52640625 189.51359375 21.57421875 190.61328125 C21.08464442 194.39279511 20.12930135 195.28598345 17.18359375 197.62890625 C14.58984375 198.14648438 14.58984375 198.14648438 11.68359375 198.16015625 C10.63171875 198.1653125 9.57984375 198.17046875 8.49609375 198.17578125 C7.40296875 198.1603125 6.30984375 198.14484375 5.18359375 198.12890625 C3.54390625 198.15210938 3.54390625 198.15210938 1.87109375 198.17578125 C0.81921875 198.170625 -0.23265625 198.16546875 -1.31640625 198.16015625 C-2.27546875 198.15564453 -3.23453125 198.15113281 -4.22265625 198.14648438 C-7.67743575 197.45708937 -8.67849722 196.4203215 -10.81640625 193.62890625 C-11.21160583 190.96308554 -11.36171593 188.70862953 -11.33106995 186.04432678 C-11.33801547 185.27672907 -11.344961 184.50913135 -11.352117 183.7182731 C-11.37042578 181.14399987 -11.36011232 178.57064418 -11.34985352 175.99633789 C-11.35691006 174.15166025 -11.36565396 172.30698839 -11.3759613 170.46232605 C-11.39849508 165.44989577 -11.39550621 160.43778065 -11.38663983 155.42531896 C-11.38153564 151.24276021 -11.3888179 147.06026099 -11.39611191 142.87770838 C-11.41312369 133.01159984 -11.40953229 123.14564592 -11.39282227 113.27954102 C-11.37589905 103.09676315 -11.39173542 92.91441389 -11.42404515 82.73168284 C-11.45072468 73.99271057 -11.45802148 65.25387186 -11.44953007 56.51486295 C-11.44459614 51.29385489 -11.44684165 46.07310477 -11.46731758 40.85212898 C-11.48564896 35.94278323 -11.47974713 31.0340549 -11.45511818 26.12474251 C-11.45010221 24.32239084 -11.45362041 22.51999235 -11.46626663 20.71767807 C-11.48216139 18.25789551 -11.46728244 15.80015501 -11.44459534 13.34046936 C-11.45643107 12.62626377 -11.46826679 11.91205817 -11.48046118 11.17620999 C-11.40824324 7.32541143 -10.89615414 5.72815698 -8.45208645 2.68637753 C-5.35607499 0.26956131 -3.88367561 -0.00282815 0 0 Z " fill="#1B2C20" transform="translate(522.81640625,609.37109375)"/>
<path d="M0 0 C3.56381186 3.18294647 6.33896776 6.90993124 9.046875 10.828125 C12.02337583 9.50523574 13.12619049 8.72841409 15.234375 6.078125 C21.50986023 -1.69513465 30.46487528 -5.21794188 40.046875 -7.171875 C54.20449287 -8.67908551 66.80766899 -5.34974421 78.0078125 3.3515625 C85.61200144 10.15880587 90.47680062 21.04542692 91.3253479 31.14137268 C91.3453334 32.85718788 91.3453334 32.85718788 91.36572266 34.60766602 C91.39552719 36.57250694 91.39552719 36.57250694 91.42593384 38.57704163 C91.43783432 39.99536957 91.44949569 41.41369953 91.4609375 42.83203125 C91.47970819 44.31633 91.49928566 45.80061874 91.5196228 47.28489685 C91.57085041 51.19393682 91.61044326 55.10301303 91.64776611 59.01220703 C91.68728863 62.91122821 91.73884671 66.81008894 91.7890625 70.70898438 C91.87416001 77.40400415 91.93577901 84.09895261 91.98547745 90.79432106 C92.02125714 95.13368552 92.10181797 99.4699936 92.20996094 103.80810547 C92.22884369 104.83483871 92.24772644 105.86157196 92.2671814 106.91941833 C92.30132764 108.76618866 92.35024283 110.61277721 92.41763306 112.45863342 C92.46656828 116.03020466 92.37081577 118.33358877 90.38720703 121.36181641 C87.4927595 123.17529981 85.73303411 123.33052211 82.328125 123.32421875 C80.68263672 123.32518555 80.68263672 123.32518555 79.00390625 123.32617188 C77.86308594 123.30619141 76.72226562 123.28621094 75.546875 123.265625 C74.40605469 123.27271484 73.26523437 123.27980469 72.08984375 123.28710938 C63.84540713 123.22413777 63.84540713 123.22413777 60.91017151 121.76847839 C58.18010463 118.92550923 58.49759297 116.11388519 58.54858398 112.37841797 C58.54030579 111.24364769 58.54030579 111.24364769 58.53186035 110.08595276 C58.52253318 108.44250967 58.52244115 106.7989943 58.53045464 105.15554428 C58.54307635 102.54808294 58.53180041 99.94168176 58.51441956 97.33425903 C58.48767179 92.73121943 58.48212493 88.1284385 58.48352051 83.52532959 C58.48574471 76.17926482 58.47143358 68.83352307 58.42793465 61.48758316 C58.41814965 58.93009524 58.4267898 56.37312019 58.43663025 53.81564331 C58.55300378 40.56539013 58.55300378 40.56539013 52.734375 28.953125 C45.78930161 23.46167163 39.74811221 22.88256931 31.046875 23.828125 C26.42090075 25.11756979 23.76389476 26.97902265 20.671875 30.640625 C17.63119529 36.6050352 16.75294796 42.20018569 16.79150391 48.82714844 C16.78788345 49.59388382 16.784263 50.3606192 16.78053284 51.15058899 C16.77367855 52.80271979 16.7711259 54.45487305 16.77248001 56.10701752 C16.77345006 58.72134097 16.76044991 61.33525875 16.74349976 63.94952393 C16.69734992 71.377614 16.67259539 78.80565801 16.66601562 86.23388672 C16.66101091 90.78734486 16.63682571 95.34037205 16.60068893 99.89368439 C16.59087725 101.62723457 16.58856645 103.36084389 16.59386063 105.09441376 C16.60090438 107.5123083 16.58371023 109.92890772 16.56103516 112.34667969 C16.57329384 113.42206749 16.57329384 113.42206749 16.58580017 114.5191803 C16.53189366 117.74074102 16.45986218 119.39739919 14.18357849 121.77145386 C11.42832158 123.13402029 9.36315656 123.21624914 6.29296875 123.2265625 C5.19146484 123.23042969 4.08996094 123.23429688 2.95507812 123.23828125 C1.80974609 123.22667969 0.66441406 123.21507812 -0.515625 123.203125 C-1.66482422 123.21472656 -2.81402344 123.22632813 -3.99804688 123.23828125 C-5.09826172 123.23441406 -6.19847656 123.23054687 -7.33203125 123.2265625 C-8.3382251 123.22317871 -9.34441895 123.21979492 -10.38110352 123.21630859 C-12.953125 122.828125 -12.953125 122.828125 -14.58982849 121.76274109 C-16.64166684 118.85103445 -16.36792752 115.91988414 -16.33789062 112.48608398 C-16.3432634 111.74093033 -16.34863617 110.99577667 -16.35417175 110.2280426 C-16.3639564 108.6091566 -16.36689182 106.99021811 -16.36381531 105.37130547 C-16.35933537 102.80148788 -16.37334579 100.23235841 -16.39221191 97.66261292 C-16.42902715 92.19696169 -16.44269073 86.7313819 -16.453125 81.265625 C-16.46523418 74.95368198 -16.4870233 68.64207245 -16.53312683 62.3302784 C-16.54660476 59.81220692 -16.54254106 57.29456682 -16.53771973 54.776474 C-16.56934893 45.52716665 -16.85216821 37.03330247 -21.703125 28.890625 C-27.66258865 23.42778332 -33.71703928 23.22611387 -41.56640625 23.41796875 C-46.3621195 23.99876447 -49.55683461 25.38906017 -52.953125 28.828125 C-54.62654614 31.11497031 -55.73199695 33.23933354 -56.953125 35.828125 C-57.448125 36.818125 -57.448125 36.818125 -57.953125 37.828125 C-58.05969702 40.30344456 -58.10727358 42.75181516 -58.11083984 45.2277832 C-58.11592056 45.99057587 -58.12100128 46.75336853 -58.12623596 47.53927612 C-58.1369487 49.19858458 -58.14556533 50.85790756 -58.15235519 52.51723671 C-58.16413121 55.14423325 -58.1835812 57.77106443 -58.20547485 60.397995 C-58.26713065 67.86805717 -58.32112272 75.33810335 -58.35449219 82.80834961 C-58.37544443 87.37546924 -58.41075411 91.94228903 -58.45524979 96.50923729 C-58.46940794 98.24949805 -58.47813181 99.98981187 -58.48130417 101.73012733 C-58.48621615 104.16716466 -58.50938138 106.60340748 -58.53662109 109.0402832 C-58.53361496 109.75787308 -58.53060883 110.47546295 -58.5275116 111.21479797 C-58.59982729 115.57409141 -59.27931835 118.35702437 -61.953125 121.828125 C-66.16650155 123.93481327 -71.69889033 123.0575048 -76.328125 123.078125 C-78.05289062 123.1090625 -78.05289062 123.1090625 -79.8125 123.140625 C-80.91851562 123.14578125 -82.02453125 123.1509375 -83.1640625 123.15625 C-84.17774902 123.1655957 -85.19143555 123.17494141 -86.23583984 123.18457031 C-89.44203663 122.76399104 -90.63293662 122.05036885 -92.953125 119.828125 C-93.45648956 117.59607029 -93.45648956 117.59607029 -93.46105957 114.93861389 C-93.47233887 113.93057205 -93.48361816 112.92253021 -93.49523926 111.88394165 C-93.48714233 110.77892303 -93.47904541 109.67390442 -93.47070312 108.53540039 C-93.4777124 107.37095901 -93.48472168 106.20651764 -93.49194336 105.00679016 C-93.50959098 101.14621337 -93.49787504 97.28636589 -93.484375 93.42578125 C-93.48706814 90.74921247 -93.49094263 88.07266608 -93.49597168 85.39610291 C-93.50325114 79.78132182 -93.49365382 74.1667511 -93.47460938 68.55200195 C-93.45285036 62.06202189 -93.45988325 55.57254464 -93.481915 49.08257681 C-93.50007335 43.51048165 -93.50262497 37.93853779 -93.49216032 32.36642259 C-93.48592627 29.03847036 -93.48665863 25.71080604 -93.49830627 22.38286018 C-93.50844303 18.67164048 -93.49300856 14.96139139 -93.47070312 11.25024414 C-93.47880005 10.14724976 -93.48689697 9.04425537 -93.49523926 7.90783691 C-93.48395996 6.89697525 -93.47268066 5.88611359 -93.46105957 4.84461975 C-93.45955147 3.96728211 -93.45804337 3.08994448 -93.45648956 2.18602085 C-92.78449992 -0.9617605 -91.42199388 -2.17456572 -88.953125 -4.171875 C-86.45117188 -4.68945312 -86.45117188 -4.68945312 -83.671875 -4.703125 C-82.66511719 -4.70828125 -81.65835937 -4.7134375 -80.62109375 -4.71875 C-79.05294922 -4.69554687 -79.05294922 -4.69554687 -77.453125 -4.671875 C-76.40769531 -4.68734375 -75.36226563 -4.7028125 -74.28515625 -4.71875 C-73.27839844 -4.71359375 -72.27164062 -4.7084375 -71.234375 -4.703125 C-69.85862305 -4.69635742 -69.85862305 -4.69635742 -68.45507812 -4.68945312 C-65.1948725 -4.01501558 -63.99719931 -2.75121862 -61.953125 -0.171875 C-61.34375 2.84375 -61.34375 2.84375 -61.203125 6.078125 C-61.14640625 7.15578125 -61.0896875 8.2334375 -61.03125 9.34375 C-61.00546875 10.16359375 -60.9796875 10.9834375 -60.953125 11.828125 C-60.540625 11.32023438 -60.128125 10.81234375 -59.703125 10.2890625 C-44.94138592 -7.30640328 -20.00340024 -14.45501185 0 0 Z " fill="#1B2C20" transform="translate(400.953125,684.171875)"/>
<path d="M0 0 C0.73021362 0.05717194 1.46042725 0.11434387 2.21276855 0.17324829 C14.42615237 1.14718274 25.77124224 2.81755087 36.6875 8.625 C37.36296875 8.96789062 38.0384375 9.31078125 38.734375 9.6640625 C42.08780984 11.39358991 45.36915745 13.09424343 48.1875 15.625 C48.1875 16.285 48.1875 16.945 48.1875 17.625 C48.8475 17.625 49.5075 17.625 50.1875 17.625 C67.78805067 37.12201832 73.81315932 66.12852806 79.36328125 91.06640625 C79.92910224 93.50935848 80.56895111 95.93597998 81.26953125 98.34375 C83.1425998 105.03897376 82.73054865 109.86943729 79.390625 115.8671875 C76.61675287 119.91992275 72.88046309 122.37354318 68.1875 123.625 C60.564308 124.10240815 52.96493596 123.23766284 45.39038086 122.45724487 C43.31999022 122.24434326 41.2489945 122.03848742 39.17773438 121.83422852 C33.40373856 121.26290497 27.63157019 120.6774962 21.86328125 120.05078125 C-7.89868965 116.88718441 -37.88679029 116.28213926 -67.79199219 116.36425781 C-71.9755539 116.37565107 -76.15886081 116.3688483 -80.3424139 116.35737705 C-110.61563201 116.28722369 -140.80203327 117.54686026 -170.9777832 120.00268555 C-173.36821957 120.19711558 -175.75922359 120.3831465 -178.15039062 120.56835938 C-179.72399355 120.6922619 -181.29756297 120.81659087 -182.87109375 120.94140625 C-183.90525673 121.02268517 -183.90525673 121.02268517 -184.96031189 121.10560608 C-188.30988191 121.37963955 -191.64058881 121.71817725 -194.97241211 122.15283203 C-199.97696256 122.76817952 -204.90096525 122.88652293 -209.9375 122.9375 C-211.38189453 122.98100586 -211.38189453 122.98100586 -212.85546875 123.02539062 C-218.87618854 123.07922099 -222.2158109 122.60150089 -226.8125 118.625 C-230.43581918 114.8003853 -232.8125 111.08776074 -232.8125 105.66992188 C-232.13070132 97.43862321 -229.79750934 89.70290834 -227.5 81.8125 C-227.10406521 80.42664706 -226.70887884 79.04058007 -226.31445312 77.65429688 C-219.06679756 52.2815929 -219.06679756 52.2815929 -213.8125 40.625 C-213.32136719 39.5009375 -212.83023437 38.376875 -212.32421875 37.21875 C-206.53544298 24.72936266 -198.69609943 13.47201696 -185.8125 7.625 C-185.01972656 7.25117188 -184.22695313 6.87734375 -183.41015625 6.4921875 C-133.07079005 -14.45022987 -53.21518392 -4.35991267 0 0 Z M-188.38671875 31.26171875 C-199.6479465 44.88750876 -203.82064727 64.11050904 -208.8125 80.625 C-209.10495605 81.59195801 -209.39741211 82.55891602 -209.69873047 83.55517578 C-210.43931783 86.03271941 -211.16335545 88.514006 -211.875 91 C-212.18074951 92.04957886 -212.18074951 92.04957886 -212.49267578 93.12036133 C-213.57464572 97.04067636 -214.10112405 100.55969953 -213.8125 104.625 C-212.75897474 105.9009011 -212.75897474 105.9009011 -210.36506653 105.75987244 C-202.11563452 105.74404501 -193.97782108 105.28358277 -185.76171875 104.56640625 C-183.77789206 104.40036308 -181.79406524 104.23432149 -179.81023121 104.06836605 C-177.06493486 103.83735955 -174.32007217 103.60140929 -171.57519531 103.36547852 C-166.78476503 102.95462867 -161.99371097 102.55113698 -157.20259094 102.14842224 C-154.66561118 101.9346833 -152.12880134 101.71891274 -149.59220886 101.50062561 C-133.48352299 100.13289206 -117.53220854 99.43655295 -101.37109375 99.3515625 C-100.35862768 99.34538721 -99.34616161 99.33921192 -98.30301476 99.3328495 C-90.61869675 99.2875278 -82.93443076 99.26492777 -75.25 99.25 C-74.12553215 99.24725697 -73.0010643 99.24451393 -71.84252167 99.24168777 C-32.79180122 99.15568065 6.39886536 99.63891572 45.13769531 105.19116211 C48.64141887 105.68957043 52.02489454 105.75754287 55.5625 105.75 C57.39941406 105.75386719 57.39941406 105.75386719 59.2734375 105.7578125 C62.07917578 105.95805073 62.07917578 105.95805073 63.1875 104.625 C63.77727107 97.9808603 61.95946856 92.05037087 60.1875 85.6875 C59.87498291 84.55103027 59.56246582 83.41456055 59.24047852 82.24365234 C51.25043997 49.54795146 51.25043997 49.54795146 30.9140625 24 C17.84349998 16.70480231 1.0016003 16.78708586 -13.5625 15.9375 C-14.60473724 15.87462799 -15.64697449 15.81175598 -16.72079468 15.74697876 C-107.00614184 5.96965736 -107.00614184 5.96965736 -188.38671875 31.26171875 Z " fill="#1A2C20" transform="translate(586.8125,194.375)"/>
<path d="M0 0 C10.78691028 11.04374147 12.74841547 23.48893498 12.80200195 38.34082031 C12.80857315 39.15340302 12.81514435 39.96598572 12.82191467 40.80319214 C12.84142053 43.45733766 12.85325082 46.11142762 12.86328125 48.765625 C12.86735678 49.67786583 12.8714323 50.59010666 12.87563133 51.52999115 C12.89638206 56.34681463 12.91073812 61.16361044 12.92016602 65.98046875 C12.9312859 70.94932264 12.96578063 75.91773557 13.00533772 80.88643265 C13.03145482 84.71772094 13.03985283 88.54890242 13.04344749 92.38027191 C13.04831594 94.21270521 13.05993728 96.04513366 13.07848549 97.87747955 C13.10280195 100.43593472 13.1019275 102.99322278 13.0949707 105.55175781 C13.10778076 106.30510406 13.12059082 107.05845032 13.13378906 107.83462524 C13.09758866 111.48737454 12.71969945 113.53743467 10.7519989 116.6555481 C8.1340244 119.15653588 6.92115534 119.3295651 3.34375 119.3515625 C1.83361328 119.36123047 1.83361328 119.36123047 0.29296875 119.37109375 C-0.75246094 119.35175781 -1.79789063 119.33242188 -2.875 119.3125 C-3.92042969 119.33183594 -4.96585938 119.35117187 -6.04296875 119.37109375 C-13.6657111 119.32229258 -13.6657111 119.32229258 -17.015625 116.32421875 C-18.30955337 113.8144439 -19.45899367 111.35918514 -20.375 108.6875 C-20.8596875 109.07421875 -21.344375 109.4609375 -21.84375 109.859375 C-35.16751331 120.21091418 -49.68325368 123.32602327 -66.375 121.6875 C-78.33539053 119.48917277 -87.4373864 113.70654096 -94.375 103.6875 C-95.97240689 100.42975808 -97.23765656 97.13010407 -98.375 93.6875 C-98.705 92.6975 -99.035 91.7075 -99.375 90.6875 C-100.38238318 79.073811 -98.98931535 69.34022488 -91.6875 59.8125 C-79.88003513 47.52675808 -61.93252608 46.05348697 -45.9375 44.0625 C-43.53515226 43.75745534 -41.13331803 43.44921344 -38.73216248 43.13491821 C-37.25476762 42.94209431 -35.77665514 42.75465528 -34.29774475 42.57382202 C-26.84564307 41.89029635 -26.84564307 41.89029635 -20.375 38.6875 C-19.82506966 32.47963251 -19.66020407 26.93945287 -23.375 21.6875 C-30.096228 15.62200156 -36.74737976 16.12886797 -45.38183594 16.50830078 C-50.94814367 17.0087503 -54.5504694 19.50790671 -58.125 23.625 C-58.8675 24.635625 -59.61 25.64625 -60.375 26.6875 C-64.19318182 31.59659091 -64.19318182 31.59659091 -66.375 32.6875 C-69.78550853 32.95432499 -73.20522002 32.91908934 -76.625 32.9375 C-77.56730469 32.958125 -78.50960937 32.97875 -79.48046875 33 C-84.90043198 33.03040653 -88.6623457 32.69221247 -93.375 29.6875 C-94.04583415 20.46353037 -90.7527602 13.75315845 -85.0625 6.59765625 C-64.90885192 -16.21515373 -23.9762754 -17.8586175 0 0 Z " fill="#1B2C20" transform="translate(838.375,688.3125)"/>
<path d="M0 0 C12.83468144 10.08557548 21.59745878 22.73812379 25 39 C25.24807511 43.0176891 25.23109416 47.03791866 25.25 51.0625 C25.270625 52.16400391 25.29125 53.26550781 25.3125 54.40039062 C25.32023437 55.98303711 25.32023437 55.98303711 25.328125 57.59765625 C25.3374707 58.56195557 25.34681641 59.52625488 25.35644531 60.51977539 C25 63 25 63 23.99241638 64.63372803 C20.83425943 66.79939047 17.46013827 66.39081238 13.76489258 66.34057617 C12.92564743 66.34101425 12.08640228 66.34145233 11.22172546 66.34190369 C8.44575799 66.33981247 5.67039331 66.31646586 2.89453125 66.29296875 C0.97068105 66.28737398 -0.95317342 66.28310332 -2.87702942 66.28010559 C-7.9422484 66.26864747 -13.00720958 66.23917193 -18.07232666 66.20599365 C-23.24023959 66.17531363 -28.40819414 66.16160468 -33.57617188 66.14648438 C-43.71756122 66.1143032 -53.85875918 66.06309512 -64 66 C-63.69924838 67.93370028 -63.39252257 69.86647206 -63.08325195 71.79882812 C-62.82799492 73.41343933 -62.82799492 73.41343933 -62.56758118 75.06066895 C-61.38653456 81.17695175 -57.97534177 85.91491702 -53.75 90.375 C-43.67140705 96.3305322 -33.51454989 97.79253682 -22.03125 95.375 C-16.31821307 93.40012304 -12.85775206 90.28001835 -9.08203125 85.609375 C-7 84 -7 84 -3.8125 83.49609375 C1.06840272 84.14121306 4.55593673 85.93133494 8.8125 88.3125 C9.57498047 88.71662109 10.33746094 89.12074219 11.12304688 89.53710938 C16.72057039 92.58085558 16.72057039 92.58085558 19 96 C18.84121507 102.09232694 15.91094044 104.81942283 11.69189453 108.87524414 C-0.98134393 120.64667911 -16.35167735 124.67829744 -33.32958984 124.40039062 C-51.74293043 123.68189912 -66.86426128 118.51374559 -80 105 C-80.63421875 104.38640625 -81.2684375 103.7728125 -81.921875 103.140625 C-89.99173332 94.78510797 -94.71440136 83.25217792 -97 72 C-97.18175781 71.11183594 -97.36351562 70.22367188 -97.55078125 69.30859375 C-100.0893634 50.61138431 -97.5351947 32.94796206 -87 17 C-84.21200531 13.42474781 -81.22364874 10.18426734 -78 7 C-77.37480469 6.35289062 -76.74960938 5.70578125 -76.10546875 5.0390625 C-57.44469572 -12.95385128 -21.2913761 -14.52461451 0 0 Z " fill="#1A2B1F" transform="translate(267,686)"/>
<path d="M0 0 C1.70639648 -0.00966797 1.70639648 -0.00966797 3.44726562 -0.01953125 C4.63126953 -0.00019531 5.81527344 0.01914062 7.03515625 0.0390625 C8.80536133 0.01005859 8.80536133 0.01005859 10.61132812 -0.01953125 C11.75021484 -0.01308594 12.88910156 -0.00664063 14.0625 0 C15.10011475 0.00563965 16.13772949 0.0112793 17.20678711 0.01708984 C21.19494842 0.90963502 22.55335336 2.49448044 25.09765625 5.6640625 C25.59129843 8.42702218 25.77589374 10.57480478 25.73257446 13.33093262 C25.74037442 14.0953012 25.74817437 14.85966979 25.75621068 15.64720106 C25.77613141 18.20474626 25.7603669 20.76080353 25.74462891 23.31835938 C25.75140503 25.15333423 25.76030813 26.98830228 25.7711792 28.82325745 C25.79397978 33.80471267 25.78513302 38.78565033 25.76928377 43.76711464 C25.75662875 48.97915674 25.76836378 54.19115441 25.7762146 59.40319824 C25.78531231 68.15608684 25.77332001 76.90876452 25.74951172 85.66162109 C25.72230027 95.78251723 25.73111434 105.90290977 25.75864375 116.0237937 C25.7813303 124.71184269 25.7845371 133.39974004 25.7714504 142.08780909 C25.76365342 147.27749035 25.76262117 152.46693487 25.77913284 157.65660095 C25.79357168 162.53561424 25.78356654 167.41397798 25.75466156 172.29292107 C25.74804762 174.08397785 25.7499537 175.87508926 25.76097488 177.66612434 C25.77463045 180.11055267 25.75751713 182.55289706 25.73257446 184.99719238 C25.74372807 185.70682491 25.75488168 186.41645743 25.76637328 187.14759398 C25.69040568 190.98285352 25.17079764 192.57291538 22.73865318 195.60379791 C19.58261326 198.065852 18.02489199 198.29573772 14.0625 198.29296875 C12.92361328 198.29490234 11.78472656 198.29683594 10.61132812 198.29882812 C9.43119141 198.27498047 8.25105469 198.25113281 7.03515625 198.2265625 C5.85115234 198.23751953 4.66714844 198.24847656 3.44726562 198.25976562 C-5.18519802 198.18640191 -5.18519802 198.18640191 -8.04319 196.10475826 C-10.53862102 192.82875813 -10.45954764 190.0354144 -10.41027832 186.07948303 C-10.41651828 185.31188532 -10.42275825 184.5442876 -10.4291873 183.75342935 C-10.445153 181.17913927 -10.4324995 178.60579139 -10.41992188 176.03149414 C-10.42534147 174.1868179 -10.43246321 172.34214599 -10.44116211 170.4974823 C-10.45941907 165.48503895 -10.45231779 160.47292441 -10.43964577 155.46047521 C-10.42952888 150.21773587 -10.43890794 144.97502497 -10.44519043 139.73228455 C-10.4524713 130.92637063 -10.44286826 122.12059083 -10.42382812 113.31469727 C-10.40206533 103.13196847 -10.40910473 92.9495601 -10.43113375 82.76683909 C-10.44928326 74.02787121 -10.45184805 65.28899983 -10.44137907 56.5500192 C-10.43514082 51.32905446 -10.43431753 46.10824032 -10.44752502 40.88728523 C-10.45907609 35.9780038 -10.45107129 31.06913553 -10.427948 26.15989876 C-10.42265665 24.35755093 -10.42418195 22.55516835 -10.43299866 20.75283432 C-10.44392136 18.29329461 -10.4302312 15.83508071 -10.41027832 13.37562561 C-10.41920121 12.66142002 -10.42812409 11.94721442 -10.43731737 11.21136624 C-10.38160989 7.67394651 -9.95084115 5.74079466 -8.04319 2.7225256 C-5.27219556 0.05816341 -3.80308432 0.02069304 0 0 Z " fill="#1B2C20" transform="translate(125.90234375,609.3359375)"/>
<path d="M0 0 C9.41538133 6.80568324 16.53724086 16.57734977 18.97265625 28.05859375 C20.66571794 41.81770076 18.74810298 54.78295124 10.23828125 65.953125 C1.62515768 75.99425335 -8.23583715 82.37069398 -21.6171875 83.6953125 C-35.71177926 84.3254477 -47.09161304 80.65777368 -57.75 71.3125 C-67.36091835 62.07742762 -71.76298166 50.6521771 -72.1875 37.375 C-71.94304246 27.23001223 -68.71804897 18.46577305 -62.75 10.3125 C-62.0075 9.28125 -61.265 8.25 -60.5 7.1875 C-44.7708058 -9.25665757 -19.18380463 -11.67285739 0 0 Z " fill="#1A2C20" transform="translate(700.75,360.6875)"/>
<path d="M0 0 C10.83988309 7.06765986 19.29969347 16.41273623 22.578125 29.13671875 C24.79018843 43.32916113 23.10299464 56.06440125 14.64453125 67.90625 C9.62109131 74.28215454 4.38642664 78.53402385 -2.98046875 81.96875 C-3.80289063 82.36320312 -4.6253125 82.75765625 -5.47265625 83.1640625 C-16.06425769 87.65842157 -27.4496583 87.39726047 -38.13671875 83.2890625 C-51.23296219 77.20866376 -58.96887418 69.20988339 -64.8515625 56.08203125 C-68.69727939 45.47636909 -68.42553951 32.21993324 -64.3671875 21.7109375 C-61.90551263 16.84306213 -58.71580941 12.91715822 -54.98046875 8.96875 C-54.28824219 8.23527344 -53.59601563 7.50179688 -52.8828125 6.74609375 C-39.21296821 -6.52680407 -16.88329294 -8.65600509 0 0 Z " fill="#1A2C20" transform="translate(370.98046875,358.03125)"/>
<path d="M0 0 C0.68964844 -0.01401855 1.37929688 -0.02803711 2.08984375 -0.04248047 C6.4930878 -0.00088005 9.31546046 0.67483764 12.8125 3.375 C16.23707967 10.22415934 13.9793847 22.99940804 12.8125 30.375 C10.37270444 32.81479556 9.71939841 32.62368895 6.375 32.6484375 C5.48433838 32.66600098 4.59367676 32.68356445 3.67602539 32.70166016 C2.73106201 32.7176123 1.78609863 32.73356445 0.8125 32.75 C-8.61368004 33.07254775 -16.78659938 33.42495319 -23.625 40.625 C-30.88662608 50.2456289 -30.32912996 61.82471979 -30.38673019 73.35207558 C-30.39864064 75.52534808 -30.41811589 77.69843248 -30.43984985 79.87162781 C-30.50110989 86.04431964 -30.55567518 92.21698025 -30.58886719 98.38989258 C-30.60978201 102.17940703 -30.64503671 105.96855735 -30.68962479 109.757864 C-30.70378598 111.19833291 -30.71250751 112.63886599 -30.71567917 114.07940102 C-30.72057454 116.08727378 -30.7453185 118.09506867 -30.77099609 120.1027832 C-30.77908295 121.24447464 -30.7871698 122.38616608 -30.79550171 123.56245422 C-31.1875 126.375 -31.1875 126.375 -32.55278015 128.24176025 C-36.38061279 130.89533548 -42.14990828 129.84010853 -46.625 129.8125 C-48.34299805 129.8424707 -48.34299805 129.8424707 -50.09570312 129.87304688 C-51.19720703 129.87240234 -52.29871094 129.87175781 -53.43359375 129.87109375 C-54.94457642 129.87387329 -54.94457642 129.87387329 -56.48608398 129.87670898 C-59.95477973 129.23250024 -60.97576848 128.08118837 -63.1875 125.375 C-63.69086456 123.03551483 -63.69086456 123.03551483 -63.69543457 120.40319824 C-63.70671387 119.40219589 -63.71799316 118.40119354 -63.72961426 117.36985779 C-63.72151733 116.27778519 -63.71342041 115.18571259 -63.70507812 114.06054688 C-63.7120874 112.90571304 -63.71909668 111.75087921 -63.72631836 110.56105042 C-63.74394366 106.73837336 -63.73225866 102.91643477 -63.71875 99.09375 C-63.72144359 96.44103064 -63.72531857 93.78833383 -63.73034668 91.13562012 C-63.73762185 85.57389301 -63.72803904 80.01237843 -63.70898438 74.45068359 C-63.68721558 68.02259714 -63.69426707 61.59501818 -63.71629 55.16694403 C-63.73444795 49.6457833 -63.73700049 44.12477525 -63.72653532 38.6035943 C-63.72030241 35.30695519 -63.72103158 32.01060665 -63.73268127 28.713974 C-63.7428179 25.03878261 -63.7273843 21.36457135 -63.70507812 17.68945312 C-63.71317505 16.59738052 -63.72127197 15.50530792 -63.72961426 14.38014221 C-63.71833496 13.37913986 -63.70705566 12.37813751 -63.69543457 11.34680176 C-63.69392647 10.47813728 -63.69241837 9.60947281 -63.69086456 8.71448517 C-63.01660326 5.580724 -61.64378455 4.36650459 -59.1875 2.375 C-55.39183052 1.56571645 -51.55990974 1.77191371 -47.6875 1.8125 C-46.64207031 1.78865234 -45.59664062 1.76480469 -44.51953125 1.74023438 C-36.96168054 1.75475009 -36.96168054 1.75475009 -33.515625 4.515625 C-32.02324805 7.72862478 -31.5927746 10.1550028 -31.4375 13.6875 C-31.38078125 14.75613281 -31.3240625 15.82476563 -31.265625 16.92578125 C-31.23984375 17.73402344 -31.2140625 18.54226563 -31.1875 19.375 C-30.775 18.72273437 -30.3625 18.07046875 -29.9375 17.3984375 C-24.97697671 9.89121698 -19.51962892 3.79101329 -10.73046875 0.84375 C-7.16141042 0.18585906 -3.61868006 0.05143882 0 0 Z " fill="#1B2C20" transform="translate(721.1875,677.625)"/>
<path d="M0 0 C0.24450277 4.63978599 0.4588119 9.27970626 0.64697266 13.92211914 C0.71482445 15.49637728 0.7904743 17.0703217 0.87451172 18.64379883 C1.44884214 29.52493852 1.28270813 38.39599208 -4.859375 47.8671875 C-13.42315403 56.96177928 -22.19358417 61.91536454 -34.91281128 62.36026001 C-37.85311032 62.41247838 -40.79082631 62.41594744 -43.73144531 62.39111328 C-45.99605536 62.37502802 -48.25888144 62.39103159 -50.5234375 62.41015625 C-63.74749775 62.43037611 -74.01329756 60.33955856 -83.9765625 51.18359375 C-90.63191494 44.1742332 -93.41258254 36.91256426 -93.171875 27.2421875 C-93.06914587 24.45043809 -92.91332881 21.6637593 -92.75 18.875 C-92.68156575 17.42717777 -92.61514446 15.97925892 -92.55078125 14.53125 C-92.39035701 11.01941661 -92.20281216 7.50967089 -92 4 C-90.91893982 3.99413376 -89.83787964 3.98826752 -88.72406006 3.98222351 C-78.54158724 3.92503804 -68.35932884 3.85229832 -58.17707443 3.76428509 C-52.94212123 3.7195364 -47.70724667 3.68029017 -42.47216797 3.65356445 C-37.42106368 3.6275764 -32.37026129 3.58720588 -27.31934357 3.53681374 C-25.39125571 3.52011456 -23.46311561 3.50861932 -21.53496552 3.50238609 C-18.83646412 3.49277816 -16.13874038 3.46475886 -13.44042969 3.43237305 C-12.24172997 3.43452568 -12.24172997 3.43452568 -11.01881409 3.4367218 C-6.75319686 3.36420552 -3.18554365 0 0 0 Z " fill="#5B361B" transform="translate(728,503)"/>
<path d="M0 0 C0.48402283 0.32342377 0.96804565 0.64684753 1.46673584 0.98007202 C5.10457195 2.44471629 8.66826897 2.30852355 12.53222656 2.31884766 C13.39112488 2.32889328 14.25002319 2.3389389 15.13494873 2.34928894 C17.97016743 2.38014711 20.80529158 2.39716343 23.640625 2.4140625 C25.6078981 2.43277202 27.57516316 2.45234528 29.54241943 2.4727478 C34.71760316 2.52409774 39.89281291 2.56370821 45.06811523 2.60089111 C50.3501633 2.64091277 55.63210284 2.69201351 60.9140625 2.7421875 C71.27596546 2.8389807 81.63792966 2.92337469 92 3 C92.24460031 7.08820954 92.4588821 11.17685815 92.64697266 15.26806641 C92.71480238 16.65520039 92.79044693 18.04197785 92.87451172 19.42822266 C93.56974017 31.02932387 92.17929666 39.93497646 84.76171875 49.18359375 C76.73546541 57.45899908 66.10946184 61.0605269 54.8125 61.23828125 C52.62773996 61.2635334 50.44317827 61.28352664 48.25830078 61.29516602 C46.76699276 61.30661281 45.27572331 61.32694722 43.78466797 61.35668945 C29.47179539 61.64167323 18.05030201 59.56621609 7.3203125 49.41015625 C0.76088972 42.47544312 -1.38875469 34.94973742 -1.171875 25.5859375 C-1.06873191 22.51321936 -0.91306149 19.4450323 -0.75 16.375 C-0.68158449 14.78263714 -0.61516225 13.19018733 -0.55078125 11.59765625 C-0.39014811 7.73038515 -0.20259805 3.86529047 0 0 Z " fill="#5B361B" transform="translate(296,504)"/>
<path d="M0 0 C1.08474609 -0.02384766 2.16949219 -0.04769531 3.28710938 -0.07226562 C4.33576172 -0.07033203 5.38441406 -0.06839844 6.46484375 -0.06640625 C7.41866943 -0.06713135 8.37249512 -0.06785645 9.35522461 -0.06860352 C13.34448008 0.86134737 14.5983737 2.27627415 17.0625 5.5625 C17.81356565 9.30023989 17.74549626 12.98902031 17.70947266 16.79101562 C17.71823425 17.92488205 17.72699585 19.05874847 17.73602295 20.22697449 C17.75802762 23.97462236 17.74345882 27.72109015 17.7265625 31.46875 C17.72993028 34.0727969 17.73478258 36.67684227 17.74105835 39.28088379 C17.75014734 44.7383299 17.73818721 50.19543737 17.71435547 55.65283203 C17.687145 61.9566221 17.69595974 68.25960356 17.7234875 74.56337404 C17.74893667 80.63486206 17.74621125 86.70599241 17.73157883 92.7775116 C17.72824161 95.35792657 17.7323429 97.93836215 17.74397659 100.51875305 C17.75666478 104.12438751 17.73733317 107.72846592 17.70947266 111.33398438 C17.71959381 112.40218918 17.72971497 113.47039398 17.74014282 114.57096863 C17.63661873 121.79683965 17.63661873 121.79683965 14.69126892 125.72483826 C11.66841117 127.83799092 10.12243817 128.19418675 6.46484375 128.19140625 C5.41619141 128.19333984 4.36753906 128.19527344 3.28710938 128.19726562 C2.20236328 128.17341797 1.11761719 128.14957031 0 128.125 C-1.08861328 128.13595703 -2.17722656 128.14691406 -3.29882812 128.15820312 C-11.2923397 128.08441686 -11.2923397 128.08441686 -14.06687164 125.83989716 C-16.27331474 123.15366223 -16.43948583 122.01716167 -16.44543457 118.59069824 C-16.45671387 117.58969589 -16.46799316 116.58869354 -16.47961426 115.55735779 C-16.47151733 114.46528519 -16.46342041 113.37321259 -16.45507812 112.24804688 C-16.4620874 111.09321304 -16.46909668 109.93837921 -16.47631836 108.74855042 C-16.49394366 104.92587336 -16.48225866 101.10393477 -16.46875 97.28125 C-16.47144359 94.62853064 -16.47531857 91.97583383 -16.48034668 89.32312012 C-16.48762185 83.76139301 -16.47803904 78.19987843 -16.45898438 72.63818359 C-16.43721558 66.21009714 -16.44426707 59.78251818 -16.46629 53.35444403 C-16.48444795 47.8332833 -16.48700049 42.31227525 -16.47653532 36.7910943 C-16.47030241 33.49445519 -16.47103158 30.19810665 -16.48268127 26.901474 C-16.4928179 23.22628261 -16.4773843 19.55207135 -16.45507812 15.87695312 C-16.46317505 14.78488052 -16.47127197 13.69280792 -16.47961426 12.56764221 C-16.46833496 11.56663986 -16.45705566 10.56563751 -16.44543457 9.53430176 C-16.44392647 8.66563728 -16.44241837 7.79697281 -16.44086456 6.90198517 C-14.66571294 -1.34837886 -6.64696736 -0.06690257 0 0 Z " fill="#1D2D21" transform="translate(888.9375,679.4375)"/>
<path d="M0 0 C8.65455823 5.94009394 13.53431322 12.42742105 16.23046875 22.69140625 C18.83439717 36.77741905 16.37724196 50.05358889 8.796875 62.09765625 C4.38012139 68.08854696 -2.88983576 71.57408152 -10.0625 73.03125 C-19.50898774 74.36508676 -27.75156497 72.24256193 -35.89453125 67.19140625 C-43.10352537 61.52102239 -46.76743253 52.1492059 -48.08203125 43.31640625 C-49.20264345 31.27513971 -48.41495921 19.13560522 -41.33203125 8.87890625 C-31.64801541 -2.68811267 -13.81128693 -7.66700068 0 0 Z " fill="#F3EFE4" transform="translate(593.08203125,708.68359375)"/>
<path d="M0 0 C1.29813126 -0.00419449 2.59626251 -0.00838898 3.93373108 -0.01271057 C5.37051467 -0.00722716 6.8072975 -0.00154419 8.24407959 0.00431824 C9.75876446 0.00324514 11.27344894 0.00130606 12.78813171 -0.00143433 C16.90197768 -0.00628314 21.01571521 0.00137486 25.12954807 0.01151872 C29.43796731 0.02030576 33.7463832 0.0185416 38.05480957 0.01815796 C45.29451306 0.01909476 52.53417465 0.02777848 59.77386475 0.04142761 C68.13303569 0.05712955 76.49216067 0.06242651 84.8513453 0.06169206 C93.75939801 0.06101517 102.66743309 0.06796719 111.57548046 0.07713866 C114.13681035 0.07926548 116.69813738 0.07997925 119.25946808 0.08037758 C123.29449695 0.08138624 127.32948762 0.08752541 131.36450386 0.09754372 C132.84147215 0.10045134 134.31844484 0.10169763 135.79541588 0.10111618 C154.90653752 0.09644195 154.90653752 0.09644195 159.68841553 3.18473816 C162.5189396 7.51897815 162.59892516 11.20632571 161.68841553 16.24723816 C159.58336961 19.80403988 158.60434745 20.94192752 154.68841553 22.24723816 C152.51848614 22.34973081 150.34551212 22.39098969 148.17318726 22.40113831 C147.50853278 22.40552056 146.8438783 22.40990281 146.15908277 22.41441786 C143.92748378 22.42779384 141.69592427 22.43398193 139.46429443 22.44010925 C137.8660718 22.448011 136.26785094 22.45628 134.66963196 22.46488953 C129.41809795 22.49109537 124.16655601 22.50641306 118.91497803 22.52067566 C117.1075884 22.52603542 115.30019882 22.53141293 113.4928093 22.53680801 C105.97634637 22.55843224 98.45988558 22.57717026 90.94339943 22.5884304 C80.1672881 22.60467972 69.39153674 22.6378864 58.61556113 22.69483125 C51.04011355 22.73350079 43.46476239 22.75305939 35.88921869 22.75835097 C31.36341735 22.76200778 26.83800008 22.77406415 22.31230545 22.8064537 C18.05552858 22.83648298 13.79936921 22.84286482 9.54250908 22.83106995 C7.98040276 22.8308488 6.41826821 22.83918827 4.8562603 22.85672379 C2.72263169 22.87937262 0.59125069 22.87114433 -1.54238892 22.85523987 C-2.73590155 22.85855001 -3.92941418 22.86186016 -5.15909386 22.86527061 C-9.23102871 22.066985 -10.70622683 20.39764496 -13.31158447 17.24723816 C-14.91465371 14.04109969 -14.79898908 10.72583819 -14.31158447 7.24723816 C-10.61645006 1.17666019 -6.87098819 -0.00331556 0 0 Z " fill="#1A2D21" transform="translate(438.31158447265625,391.7527618408203)"/>
<path d="M0 0 C0.66 0.33 1.32 0.66 2 1 C1.67 1.33 1.34 1.66 1 2 C0.87802192 3.38050858 0.82231101 4.76697647 0.79467773 6.15258789 C0.77473251 7.03342545 0.75478729 7.914263 0.73423767 8.8217926 C0.71752518 9.77907761 0.70081268 10.73636261 0.68359375 11.72265625 C0.6524221 13.18547279 0.6524221 13.18547279 0.62062073 14.67784119 C0.55501588 17.8059863 0.49618972 20.93421822 0.4375 24.0625 C0.39432517 26.1777435 0.35071123 28.29297809 0.30664062 30.40820312 C0.19932345 35.60537587 0.0975778 40.80263577 0 46 C-0.33 46 -0.66 46 -1 46 C-1.33 35.77 -1.66 25.54 -2 15 C-3.32 15.99 -4.64 16.98 -6 18 C-8.88809296 18.27535762 -11.55520444 18.3795178 -14.44042969 18.34057617 C-15.7141468 18.34123329 -15.7141468 18.34123329 -17.01359558 18.34190369 C-19.81659036 18.33981588 -22.61898488 18.31648524 -25.421875 18.29296875 C-27.36671624 18.28737277 -29.31156171 18.28310268 -31.25640869 18.28010559 C-36.37257586 18.26865701 -41.4884871 18.23918962 -46.60455322 18.20599365 C-51.82617735 18.17529312 -57.04784287 18.16160028 -62.26953125 18.14648438 C-72.51315131 18.11431996 -82.75651432 18.06155182 -93 18 C-93 27.57 -93 37.14 -93 47 C-93.33 47 -93.66 47 -94 47 C-94 33.47 -94 19.94 -94 6 C-175.18 6 -256.36 6 -340 6 C-340 18.54 -340 31.08 -340 44 C-340.33 44 -340.66 44 -341 44 C-341 35.42 -341 26.84 -341 18 C-343.6500708 18.01047363 -346.3001416 18.02094727 -349.03051758 18.03173828 C-357.77562519 18.06484283 -366.52073554 18.0869556 -375.26588917 18.10362434 C-380.56930156 18.11407207 -385.87264988 18.12824932 -391.17602539 18.15087891 C-396.29180724 18.172572 -401.40752738 18.18456117 -406.52335167 18.18975449 C-408.47743387 18.1934566 -410.43151261 18.20068568 -412.38556862 18.21146011 C-415.11755359 18.22592806 -417.84928186 18.22797991 -420.58129883 18.22705078 C-421.39337799 18.23424133 -422.20545715 18.24143188 -423.04214478 18.24884033 C-426.89513058 18.23461315 -428.71680535 18.18879643 -432 16 C-432.33 25.9 -432.66 35.8 -433 46 C-433.33 46 -433.66 46 -434 46 C-434 31.15 -434 16.3 -434 1 C-433.67 1.66 -433.34 2.32 -433 3 C-432.23065113 2.99750431 -431.46130225 2.99500862 -430.66863978 2.9924373 C-384.78765304 2.8437554 -338.90665037 2.70133885 -293.02562002 2.5667524 C-287.48241191 2.5504868 -281.93920396 2.5341703 -276.39599609 2.51782227 C-275.29272017 2.51456934 -274.18944425 2.51131642 -273.05273573 2.50796492 C-255.32835927 2.45558534 -237.60399822 2.39910829 -219.87963958 2.3410418 C-201.61159104 2.28128818 -183.34353255 2.22611187 -165.07545793 2.17494446 C-154.8488324 2.14617556 -144.62222133 2.11545692 -134.39561844 2.07946587 C-89.91590666 1.92397802 -45.47012921 1.94115046 -1 3 C-0.67 2.01 -0.34 1.02 0 0 Z " fill="#1A2B1F" transform="translate(729,489)"/>
<path d="M0 0 C7.28255422 4.75681287 12.14130239 9.85050921 14.60546875 18.30859375 C16.3821214 26.79704528 14.30931256 34.77640671 9.9296875 42.1796875 C5.33803091 48.23444822 -1.63125592 51.90745728 -8.97265625 53.32421875 C-16.93503314 54.29342193 -23.54087057 52.2451684 -30.20703125 47.8515625 C-36.40104371 42.92662402 -41.21322398 35.41212663 -42.2109375 27.4140625 C-42.49440707 19.19344511 -39.9614698 12.44327622 -34.84765625 6.01171875 C-25.71990949 -3.50197925 -11.92415456 -6.32846192 0 0 Z " fill="#D78545" transform="translate(687.97265625,373.67578125)"/>
<path d="M0 0 C6.10323553 4.29004129 10.64727998 10.32074619 13.01171875 17.4140625 C13.91062554 28.05358217 12.44193961 35.35437611 5.82421875 43.7265625 C0.13771196 49.86554403 -7.06516014 51.93140357 -15.17578125 52.7265625 C-24.13216812 51.99243243 -30.90105676 47.86764772 -36.98828125 41.4140625 C-41.89657091 35.21411766 -43.50621129 28.83439018 -43.29296875 21.02734375 C-42.25224222 12.10111238 -37.88221046 5.9444974 -30.98828125 0.4140625 C-22.25144776 -6.41339678 -9.18531111 -5.435275 0 0 Z " fill="#D78545" transform="translate(363.98828125,374.5859375)"/>
<path d="M0 0 C0.78401172 9.82628018 -0.6226551 18.10333393 -6.609375 26.16796875 C-11.45789326 31.38346201 -18.21975024 35.52892531 -25.41796875 36.23828125 C-31.83087766 36.41013635 -36.77997011 35.95195659 -42 32 C-46.06160202 27.52182342 -47.25638838 22.93966409 -47 17 C-45.38729566 12.06702201 -42.61582524 8.42070534 -38 6 C-26.42089988 2.35291055 -12.15131316 0 0 0 Z " fill="#F3EEE4" transform="translate(819,750)"/>
<path d="M0 0 C5.16837809 4.23942124 8.89791956 8.75198947 10.515625 15.3359375 C10.515625 17.3159375 10.515625 19.2959375 10.515625 21.3359375 C-8.624375 21.3359375 -27.764375 21.3359375 -47.484375 21.3359375 C-46.13577594 11.89574409 -43.91298755 6.84307741 -36.50390625 0.80859375 C-26.14504918 -6.74515695 -10.72736112 -7.18530792 0 0 Z " fill="#F2EEE4" transform="translate(250.484375,707.6640625)"/>
<path d="M0 0 C0.98935547 -0.02835938 1.97871094 -0.05671875 2.99804688 -0.0859375 C7.71797759 -0.09863402 10.30939896 0.00094625 14.31640625 2.65625 C16.0625 5.5 16.0625 5.5 16.21875 8.39453125 C14.70893757 12.44960179 12.46675313 15.03355193 9.5625 18.1875 C8.46744326 19.41419933 7.3737075 20.64207906 6.28125 21.87109375 C5.46527344 22.78157471 5.46527344 22.78157471 4.6328125 23.71044922 C1.61137422 27.15372388 -1.18074705 30.7811269 -4 34.390625 C-6.88904068 37.53595155 -8.79385696 38.36282059 -13.03125 38.87109375 C-14.1553125 38.89300781 -15.279375 38.91492188 -16.4375 38.9375 C-18.12359375 38.99744141 -18.12359375 38.99744141 -19.84375 39.05859375 C-22.9375 38.5 -22.9375 38.5 -25.40625 36.34765625 C-27.3393755 32.7526346 -26.85302125 31.41644657 -25.9375 27.5 C-24.38399724 23.34193768 -22.48268461 19.34269028 -20.625 15.3125 C-20.13837891 14.22001953 -19.65175781 13.12753906 -19.15039062 12.00195312 C-18.67150391 10.95587891 -18.19261719 9.90980469 -17.69921875 8.83203125 C-17.048927 7.40467651 -17.048927 7.40467651 -16.38549805 5.94848633 C-12.42544967 -0.74774115 -7.05089317 -0.01830212 0 0 Z " fill="#1A2A1F" transform="translate(896.9375,624.5)"/>
<path d="M0 0 C81.18 0 162.36 0 246 0 C246 14.85 246 29.7 246 45 C239.58300867 32.16601733 244 16.34882883 244 2 C164.14 2 84.28 2 2 2 C2 14.21 2 26.42 2 39 C1.01 42.63 0.02 46.26 -1 50 C-2 46 -2 46 -1 42 C-0.67 28.14 -0.34 14.28 0 0 Z " fill="#FDFCF7" transform="translate(389,495)"/>
<path d="M0 0 C74.25 0 148.5 0 225 0 C225 0.33 225 0.66 225 1 C255.69 1.495 255.69 1.495 287 2 C287 15.86 287 29.72 287 44 C286.67 44 286.34 44 286 44 C286 30.47 286 16.94 286 3 C204.82 3 123.64 3 40 3 C40 2.34 40 1.68 40 1 C26.8 1 13.6 1 0 1 C0 0.67 0 0.34 0 0 Z " fill="#0E1611" transform="translate(349,492)"/>
<path d="M0 0 C1.98 0.99 1.98 0.99 4 2 C4 63.71 4 125.42 4 189 C3.01 189 2.02 189 1 189 C0.67 126.63 0.34 64.26 0 0 Z " fill="#273127" transform="translate(147,613)"/>
<path d="M0 0 C1.90261848 -0.00143509 1.90261848 -0.00143509 3.84367371 -0.00289917 C6.4999039 -0.00357418 9.15603944 -0.00228473 11.81225586 0.00244141 C15.19193864 0.00816691 18.57154245 0.00482929 21.95122242 -0.00113106 C25.21748435 -0.00563702 28.48373704 -0.00247297 31.75 0 C32.95018265 -0.00202423 34.1503653 -0.00404846 35.38691711 -0.00613403 C41.6906737 0.01136747 47.79360301 0.29535009 54.04296875 1.1328125 C54.04296875 1.4628125 54.04296875 1.7928125 54.04296875 2.1328125 C49.08760475 2.9431247 44.29645847 3.27269176 39.27172852 3.24633789 C38.15828819 3.24655693 38.15828819 3.24655693 37.02235413 3.2467804 C34.59299699 3.24608924 32.16371858 3.23833453 29.734375 3.23046875 C28.0404413 3.22860173 26.34650706 3.22717917 24.65257263 3.22618103 C20.21223437 3.22237818 15.77192925 3.21256712 11.331604 3.20147705 C6.79333952 3.19121477 2.25506964 3.18667312 -2.28320312 3.18164062 C-11.17449366 3.1709427 -20.06575969 3.1538933 -28.95703125 3.1328125 C-28.62703125 2.4728125 -28.29703125 1.8128125 -27.95703125 1.1328125 C-18.78139621 -0.27436961 -9.26406986 -0.01575769 0 0 Z " fill="#DFDED4" transform="translate(500.95703125,208.8671875)"/>
<path d="M0 0 C1.10214844 -0.020625 2.20429687 -0.04125 3.33984375 -0.0625 C4.40074219 -0.06765625 5.46164062 -0.0728125 6.5546875 -0.078125 C7.52647949 -0.0874707 8.49827148 -0.09681641 9.49951172 -0.10644531 C12.64165944 0.32014346 13.8457457 1.06977733 16.125 3.25 C16.60157394 5.47761059 16.60157394 5.47761059 16.5680542 8.12846375 C16.5651387 9.13387207 16.56222321 10.1392804 16.55921936 11.17515564 C16.5236216 12.82808372 16.5236216 12.82808372 16.48730469 14.5144043 C16.47813522 15.67551727 16.46896576 16.83663025 16.45951843 18.03292847 C16.42437602 21.88049074 16.36070788 25.72703418 16.296875 29.57421875 C16.26698549 32.23793927 16.23867286 34.90162957 16.21246338 37.56538391 C16.14700125 43.86605495 16.06102036 50.16627276 15.96769357 56.46658593 C15.86244161 63.63926015 15.78002318 70.81213959 15.6995368 77.98512781 C15.53345857 92.74044261 15.33865894 107.49529566 15.125 122.25 C14.795 122.25 14.465 122.25 14.125 122.25 C13.94950741 112.72931553 13.78351725 103.20848069 13.625 93.6875 C13.60718412 92.61790543 13.60718412 92.61790543 13.58900833 91.52670288 C13.10242869 62.09873162 13.01921338 32.6821873 13.125 3.25 C4.545 3.58 -4.035 3.91 -12.875 4.25 C-13.205 3.26 -13.535 2.27 -13.875 1.25 C-9.77746223 -0.79876888 -4.50346243 0.02092201 0 0 Z " fill="#29382C" transform="translate(888.875,679.75)"/>
<path d="M0 0 C2.82585834 2.82585834 2.33024637 5.56763968 2.36645508 9.35546875 C2.38131958 10.11332672 2.39618408 10.87118469 2.41149902 11.65200806 C2.45778069 14.16378387 2.48931264 16.67548298 2.51953125 19.1875 C2.54585109 20.92863609 2.57260534 22.66976567 2.59977722 24.41088867 C2.65425733 28.06260611 2.70103044 31.71432826 2.74291992 35.36621094 C2.79765814 40.0543665 2.87514575 44.74183409 2.95886707 49.42955017 C3.01996593 53.02556281 3.06717173 56.62165731 3.11032677 60.21792603 C3.13311888 61.94681688 3.16071387 63.67565114 3.19312477 65.40438843 C3.23665805 67.81785141 3.26107996 70.23077068 3.28051758 72.64453125 C3.29751205 73.36355621 3.31450653 74.08258118 3.33201599 74.82339478 C3.33625793 76.81176758 3.33625793 76.81176758 3 80 C1.515 80.99 1.515 80.99 0 82 C0 54.94 0 27.88 0 0 Z " fill="#F6F4EF" transform="translate(546,613)"/>
<path d="M0 0 C0 21.45 0 42.9 0 65 C-1.485 65.495 -1.485 65.495 -3 66 C-3 44.55 -3 23.1 -3 1 C-1 0 -1 0 0 0 Z " fill="#E2DFD5" transform="translate(693,737)"/>
<path d="M0 0 C3.42353587 1.21480305 5.01180815 3.01771223 7 6 C6.360625 6.268125 5.72125 6.53625 5.0625 6.8125 C2.66868314 7.88667752 2.66868314 7.88667752 2 11 C1.01 11.33 0.02 11.66 -1 12 C0.24839499 13.105981 1.49879234 14.20970201 2.75 15.3125 C3.79414063 16.23482422 3.79414063 16.23482422 4.859375 17.17578125 C6.85114506 18.87314734 8.88898915 20.45477809 11 22 C4.34469984 21.26184506 0.45501727 16.65001802 -4 12 C-5.80920905 9.64172751 -6.83600062 7.7714271 -8 5 C-7.67 4.01 -7.34 3.02 -7 2 C-6.67 2 -6.34 2 -6 2 C-3.81880738 1.50747263 -2.00741649 1.00370824 0 0 Z " fill="#522D16" transform="translate(305,539)"/>
<path d="M0 0 C0.66 0.33 1.32 0.66 2 1 C2 2.32 2 3.64 2 5 C-16.81 5 -35.62 5 -55 5 C-55 4.67 -55 4.34 -55 4 C-51.55071641 3.21926772 -48.37625112 2.87752848 -44.8425293 2.88647461 C-43.84186935 2.88655014 -42.84120941 2.88662567 -41.81022644 2.88670349 C-40.7423439 2.89186478 -39.67446136 2.89702606 -38.57421875 2.90234375 C-37.47149124 2.9037587 -36.36876373 2.90517365 -35.23262024 2.90663147 C-31.71755233 2.91221996 -28.20254859 2.92477041 -24.6875 2.9375 C-22.30143321 2.94251648 -19.91536543 2.94707913 -17.52929688 2.95117188 C-11.6861761 2.96218563 -5.84309263 2.97891236 0 3 C0 2.01 0 1.02 0 0 Z " fill="#FCFAF5" transform="translate(259,724)"/>
<path d="M0 0 C0.66 0 1.32 0 2 0 C2.9873493 5.73619197 3.13082936 11.27671658 3.09765625 17.08984375 C3.0962413 18.03436905 3.09482635 18.97889435 3.09336853 19.95204163 C3.0878036 22.94722763 3.07525767 25.94233687 3.0625 28.9375 C3.05748046 30.97721246 3.05291835 33.01692609 3.04882812 35.05664062 C3.03784567 40.03778966 3.0206054 45.01888185 3 50 C-0.15579108 43.87741167 -0.13773909 38.30734894 -0.09765625 31.54296875 C-0.0962413 30.64000565 -0.09482635 29.73704254 -0.09336853 28.80671692 C-0.08778823 25.93361037 -0.07523934 23.06058284 -0.0625 20.1875 C-0.05748245 18.23502717 -0.05291999 16.28255311 -0.04882812 14.33007812 C-0.03782525 9.55335515 -0.02057418 4.77669096 0 0 Z " fill="#EAE2D9" transform="translate(292,490)"/>
<path d="M0 0 C3.63 0 7.26 0 11 0 C11 14.85 11 29.7 11 45 C8.75 40.5 8.75 40.5 8.77294922 36.96582031 C8.77317581 35.79505951 8.77317581 35.79505951 8.77340698 34.60064697 C8.78889084 33.3519986 8.78889084 33.3519986 8.8046875 32.078125 C8.8075174 31.21813904 8.81034729 30.35815308 8.81326294 29.47210693 C8.8244385 26.73126179 8.84953821 23.99074602 8.875 21.25 C8.8850332 19.38932764 8.89415845 17.52865015 8.90234375 15.66796875 C8.92436924 11.11185268 8.95888103 6.55598214 9 2 C6.03 2 3.06 2 0 2 C0 1.34 0 0.68 0 0 Z " fill="#F9F6EF" transform="translate(624,495)"/>
<path d="M0 0 C0.33 0 0.66 0 1 0 C1 14.85 1 29.7 1 45 C0.67 45 0.34 45 0 45 C-0.33 55.23 -0.66 65.46 -1 76 C-1.33 76 -1.66 76 -2 76 C-2.02464705 70.32169922 -2.04283462 64.64342931 -2.05493164 58.96508789 C-2.05997256 57.03181415 -2.06680519 55.09854424 -2.07543945 53.1652832 C-2.08751565 50.39273128 -2.09323057 47.62022959 -2.09765625 44.84765625 C-2.10281754 43.97786636 -2.10797882 43.10807648 -2.11329651 42.21192932 C-2.11349185 40.14094186 -2.06208168 38.07005676 -2 36 C-1.505 35.505 -1.505 35.505 -1 35 C-0.84003834 32.40846893 -0.74061303 29.8404798 -0.68359375 27.24609375 C-0.66281265 26.47064713 -0.64203156 25.6952005 -0.62062073 24.89625549 C-0.55504198 22.41009692 -0.49620201 19.92382955 -0.4375 17.4375 C-0.39432267 15.75584796 -0.35070864 14.07420706 -0.30664062 12.39257812 C-0.19935221 8.26183129 -0.09810868 4.13097464 0 0 Z " fill="#E1DED1" transform="translate(419,726)"/>
<path d="M0 0 C1.5631897 0.07069702 1.5631897 0.07069702 3.15795898 0.14282227 C4.28266602 0.19116211 5.40737305 0.23950195 6.56616211 0.28930664 C8.34216797 0.37341797 8.34216797 0.37341797 10.15405273 0.45922852 C11.34192383 0.51143555 12.52979492 0.56364258 13.75366211 0.61743164 C16.69986339 0.74758511 19.64576549 0.88256492 22.59155273 1.02172852 C22.59155273 1.35172852 22.59155273 1.68172852 22.59155273 2.02172852 C15.00155273 2.35172852 7.41155273 2.68172852 -0.40844727 3.02172852 C-0.73844727 21.83172852 -1.06844727 40.64172852 -1.40844727 60.02172852 C-1.73844727 60.02172852 -2.06844727 60.02172852 -2.40844727 60.02172852 C-2.56205641 52.34646343 -2.71023813 44.67111007 -2.85141087 36.99560642 C-2.91712899 33.43190825 -2.98474581 29.86826684 -3.05664062 26.3046875 C-3.13913292 22.21176218 -3.21347683 18.11872472 -3.28735352 14.02563477 C-3.31438858 12.74024307 -3.34142365 11.45485138 -3.36927795 10.13050842 C-3.38937424 8.94935959 -3.40947052 7.76821075 -3.43017578 6.55126953 C-3.45016129 5.50536148 -3.47014679 4.45945343 -3.49073792 3.3818512 C-3.37844248 0.16118156 -3.2291225 0.02913248 0 0 Z " fill="#273A2D" transform="translate(662.408447265625,680.978271484375)"/>
<path d="M0 0 C0.4125 0.515625 0.825 1.03125 1.25 1.5625 C2.11625 2.2740625 2.11625 2.2740625 3 3 C5.16299211 2.77242269 5.16299211 2.77242269 7 2 C7 2.66 7 3.32 7 4 C7.66 4.33 8.32 4.66 9 5 C5.66666667 8.33333333 2.33333333 11.66666667 -1 15 C-1.33 10.38 -1.66 5.76 -2 1 C-1.34 0.67 -0.68 0.34 0 0 Z " fill="#EBE8DF" transform="translate(340,682)"/>
<path d="M0 0 C7.59 0 15.18 0 23 0 C23 0.99 23 1.98 23 3 C15.41 3 7.82 3 0 3 C0 2.01 0 1.02 0 0 Z " fill="#2D372E" transform="translate(312,680)"/>
<path d="M0 0 C-1.65 0.33 -3.3 0.66 -5 1 C-5 2.65 -5 4.3 -5 6 C-5.99 6.33 -6.98 6.66 -8 7 C-8 7.99 -8 8.98 -8 10 C-10.31 10.66 -12.62 11.32 -15 12 C-15 11.34 -15 10.68 -15 10 C-15.66 9.67 -16.32 9.34 -17 9 C-6.22637795 -2.63423683 -6.22637795 -2.63423683 0 0 Z " fill="#DC8847" transform="translate(343,373)"/>
<path d="M0 0 C4.01715754 6.0257363 2.24220851 14.40010736 1 21.25 C0.67750969 22.83557736 0.3483671 24.41990636 0 26 C-0.99 26 -1.98 26 -3 26 C-2.125 19.25 -2.125 19.25 -1 17 C-0.95397219 14.49148419 -0.95314432 12.00677877 -1 9.5 C-1.13513514 2.27027027 -1.13513514 2.27027027 0 0 Z " fill="#E5E3DB" transform="translate(608,733)"/>
<path d="M0 0 C0.72896484 -0.01224609 1.45792969 -0.02449219 2.20898438 -0.03710938 C6.0338391 -0.04762685 7.80606564 0.01654376 11.0625 2.1875 C7.77896451 3.82926774 4.16730362 3.37204039 0.5625 3.375 C-0.22253906 3.38724609 -1.00757813 3.39949219 -1.81640625 3.41210938 C-3.85813726 3.41736254 -5.89942251 3.3097018 -7.9375 3.1875 C-8.5975 2.5275 -9.2575 1.8675 -9.9375 1.1875 C-6.79347519 -0.3845124 -3.44802603 0.00303256 0 0 Z " fill="#252F25" transform="translate(584.9375,676.8125)"/>
<path d="M0 0 C0.33 0.99 0.66 1.98 1 3 C-1.97 3 -4.94 3 -8 3 C-7.34 4.32 -6.68 5.64 -6 7 C-6.99 7.99 -7.98 8.98 -9 10 C-9.103125 9.401875 -9.20625 8.80375 -9.3125 8.1875 C-10.13352439 5.57514967 -10.78215026 4.60602912 -13 3 C-16.10839021 2.2730774 -16.10839021 2.2730774 -19 2 C-19 1.67 -19 1.34 -19 1 C-12.65333314 0.41639845 -6.37625222 -0.14491482 0 0 Z " fill="#39522F" transform="translate(591,167)"/>
<path d="M0 0 C0.89267578 0.00322266 1.78535156 0.00644531 2.70507812 0.00976562 C4.09823242 0.02233398 4.09823242 0.02233398 5.51953125 0.03515625 C6.45990234 0.03966797 7.40027344 0.04417969 8.36914062 0.04882812 C10.69016837 0.06060999 13.01106769 0.07706067 15.33203125 0.09765625 C15.33203125 0.42765625 15.33203125 0.75765625 15.33203125 1.09765625 C7.91772534 2.9348294 0.95517599 3.33342361 -6.66796875 3.09765625 C-6.99796875 2.43765625 -7.32796875 1.77765625 -7.66796875 1.09765625 C-4.78531726 0.13677242 -2.99134604 -0.01905316 0 0 Z " fill="#233025" transform="translate(757.66796875,717.90234375)"/>
<path d="M0 0 C7.29031024 -0.2494783 13.90673679 0.27669093 21 2 C17.12328894 4.67289025 13.20732397 4.01875653 8.75 3.625 C8.00492188 3.56828125 7.25984375 3.5115625 6.4921875 3.453125 C4.66064892 3.31223742 2.83018648 3.15748116 1 3 C0.67 2.01 0.34 1.02 0 0 Z " fill="#253428" transform="translate(582,209)"/>
<path d="M0 0 C0.74958984 0.00902344 1.49917969 0.01804688 2.27148438 0.02734375 C4.11862654 0.05087422 5.96560412 0.08674439 7.8125 0.125 C6.8225 1.61 6.8225 1.61 5.8125 3.125 C3.421875 3.453125 3.421875 3.453125 0.5625 3.375 C-0.41847656 3.34921875 -1.39945313 3.3234375 -2.41015625 3.296875 C-5.39029162 3.11245031 -8.26790921 2.75626287 -11.1875 2.125 C-7.39586973 -0.40275351 -4.37875969 -0.09943035 0 0 Z " fill="#253025" transform="translate(571.1875,207.875)"/>
<path d="M0 0 C5.94 0 11.88 0 18 0 C18.33 0.99 18.66 1.98 19 3 C12.73 3 6.46 3 0 3 C0 2.01 0 1.02 0 0 Z " fill="#2E3B2D" transform="translate(223,677)"/>
<path d="M0 0 C1.19799449 4.14659373 0.8896192 7.99369047 0.5625 12.25 C0.48418945 13.36761719 0.48418945 13.36761719 0.40429688 14.5078125 C0.2751783 16.33894861 0.13834886 18.16953813 0 20 C-0.99 19.67 -1.98 19.34 -3 19 C-3 14.05 -3 9.1 -3 4 C-2.34 3.67 -1.68 3.34 -1 3 C-0.67 2.01 -0.34 1.02 0 0 Z " fill="#2A382C" transform="translate(742,760)"/>
<path d="M0 0 C0.33 0 0.66 0 1 0 C1.48798077 6.34375 1.48798077 6.34375 -0.8125 9.4375 C-3 11 -3 11 -6 11 C-6.144375 10.21625 -6.28875 9.4325 -6.4375 8.625 C-6.87798925 6.03578982 -6.87798925 6.03578982 -8 4 C-4.125 4.875 -4.125 4.875 -3 6 C-2.01 4.02 -1.02 2.04 0 0 Z " fill="#273F20" transform="translate(331,279)"/>
<path d="M0 0 C0.33 0 0.66 0 1 0 C1 9.24 1 18.48 1 28 C1.66 28.33 2.32 28.66 3 29 C1.02 29.99 1.02 29.99 -1 31 C-0.67 20.77 -0.34 10.54 0 0 Z " fill="#EEE8DD" transform="translate(391,507)"/>
<path d="M0 0 C6.93 0 13.86 0 21 0 C21 0.33 21 0.66 21 1 C20.24074219 1.06058594 19.48148438 1.12117188 18.69921875 1.18359375 C17.70535156 1.26738281 16.71148438 1.35117187 15.6875 1.4375 C14.70136719 1.51871094 13.71523438 1.59992188 12.69921875 1.68359375 C9.90624401 1.91812559 9.90624401 1.91812559 7 3 C6.67 3.66 6.34 4.32 6 5 C3.98079663 3.69593116 1.98075027 2.36176581 0 1 C0 0.67 0 0.34 0 0 Z " fill="#F7F4F1" transform="translate(710,321)"/>
<path d="M0 0 C1.32 0 2.64 0 4 0 C4.33 1.32 4.66 2.64 5 4 C3.68 4.33 2.36 4.66 1 5 C1 10.28 1 15.56 1 21 C0.67 21 0.34 21 0 21 C0 14.07 0 7.14 0 0 Z " fill="#36502D" transform="translate(277,442)"/>
<path d="M0 0 C1.93719378 -0.05406122 3.87481921 -0.09282025 5.8125 -0.125 C6.89144531 -0.14820313 7.97039063 -0.17140625 9.08203125 -0.1953125 C12 0 12 0 15 2 C14.67 2.99 14.34 3.98 14 5 C11.9375 5.6875 11.9375 5.6875 10 6 C9.67 5.34 9.34 4.68 9 4 C8.01 3.67 7.02 3.34 6 3 C6.33 2.67 6.66 2.34 7 2 C4.69 1.67 2.38 1.34 0 1 C0 0.67 0 0.34 0 0 Z " fill="#21391B" transform="translate(598,169)"/>
<path d="M0 0 C4.29 0.33 8.58 0.66 13 1 C11.68 1.33 10.36 1.66 9 2 C7.83333333 3.91666667 7.83333333 3.91666667 7 6 C6.34 6.66 5.68 7.32 5 8 C4.67 6.68 4.34 5.36 4 4 C2.35 3.67 0.7 3.34 -1 3 C-0.67 2.01 -0.34 1.02 0 0 Z " fill="#385230" transform="translate(414,169)"/>
<path d="M0 0 C-2.52887288 1.68591525 -4.65746195 2.74048194 -7.4375 3.875 C-11.00451797 5.42032049 -13.49043171 6.94487338 -16 10 C-16.33 9.01 -16.66 8.02 -17 7 C-7.06354749 -0.40363128 -7.06354749 -0.40363128 0 0 Z " fill="#151C15" transform="translate(438,679)"/>
<path d="M0 0 C10.55808656 -0.3690205 10.55808656 -0.3690205 15 2 C14.01 2.33 13.02 2.66 12 3 C11.01 3.495 11.01 3.495 10 4 C8.33607955 4.67349161 6.66967972 5.3409159 5 6 C5 4.68 5 3.36 5 2 C3.35 1.67 1.7 1.34 0 1 C0 0.67 0 0.34 0 0 Z " fill="#E68F49" transform="translate(671,371)"/>
<path d="M0 0 C0.33 0 0.66 0 1 0 C0.67 3.96 0.34 7.92 0 12 C-0.99 12 -1.98 12 -3 12 C-2.88541307 10.56163249 -2.75790884 9.12429034 -2.625 7.6875 C-2.55539062 6.88699219 -2.48578125 6.08648438 -2.4140625 5.26171875 C-2 3 -2 3 0 0 Z " fill="#DFDFD6" transform="translate(775,761)"/>
<path d="M0 0 C0.33 0 0.66 0 1 0 C1.33 6.93 1.66 13.86 2 21 C1.01 21 0.02 21 -1 21 C-2.30891285 16.35930898 -1.73588321 12.36772241 -1.0625 7.6875 C-0.96259766 6.94693359 -0.86269531 6.20636719 -0.75976562 5.44335938 C-0.51380065 3.62790363 -0.25789626 1.81379929 0 0 Z " fill="#3B5532" transform="translate(746,448)"/>
<path d="M0 0 C6.93 0 13.86 0 21 0 C21 0.33 21 0.66 21 1 C20.15695312 1.06058594 19.31390625 1.12117187 18.4453125 1.18359375 C17.34960938 1.26738281 16.25390625 1.35117187 15.125 1.4375 C14.03445313 1.51871094 12.94390625 1.59992187 11.8203125 1.68359375 C9.05271029 1.83001703 9.05271029 1.83001703 7 3 C4.6670134 3.04022391 2.33293334 3.04320247 0 3 C0 2.01 0 1.02 0 0 Z " fill="#27372A" transform="translate(574,807)"/>
<path d="M0 0 C6.93 0.33 13.86 0.66 21 1 C21 1.33 21 1.66 21 2 C16.05 2 11.1 2 6 2 C5.67 3.32 5.34 4.64 5 6 C4.01 5.67 3.02 5.34 2 5 C2.66 4.34 3.32 3.68 4 3 C2.68 2.01 1.36 1.02 0 0 Z " fill="#27392B" transform="translate(436,678)"/>
<path d="M0 0 C0.33 0.99 0.66 1.98 1 3 C1.268125 3.61875 1.53625 4.2375 1.8125 4.875 C2 7 2 7 0.1875 9.5625 C-0.534375 10.366875 -1.25625 11.17125 -2 12 C-2.66 12.99 -3.32 13.98 -4 15 C-3.50341703 9.33895411 -2.45489316 5.12325529 0 0 Z " fill="#253B1F" transform="translate(345,234)"/>
<path d="M0 0 C0 0.66 0 1.32 0 2 C-4.55426184 4.66590937 -7.73946963 5.31563182 -13 5 C-13 4.01 -13 3.02 -13 2 C-11.20873548 1.66451233 -9.41697413 1.33167645 -7.625 1 C-6.62726562 0.814375 -5.62953125 0.62875 -4.6015625 0.4375 C-2 0 -2 0 0 0 Z " fill="#E2E0D8" transform="translate(604,807)"/>
<path d="M0 0 C-2.64738916 1.4606285 -3.89448334 2 -7 2 C-7 2.66 -7 3.32 -7 4 C-9.31 4.66 -11.62 5.32 -14 6 C-14 5.01 -14 4.02 -14 3 C-9.07015675 0.96006486 -5.42039575 -0.40652968 0 0 Z " fill="#131D14" transform="translate(785,679)"/>
<path d="M0 0 C0.66 0.33 1.32 0.66 2 1 C1.36191406 1.61488281 0.72382813 2.22976563 0.06640625 2.86328125 C-1.17302734 4.07564453 -1.17302734 4.07564453 -2.4375 5.3125 C-3.26121094 6.11300781 -4.08492188 6.91351563 -4.93359375 7.73828125 C-7.19403477 9.90470808 -7.19403477 9.90470808 -8 13 C-10.0625 13.6875 -10.0625 13.6875 -12 14 C-8.72905967 8.54843278 -4.58146674 4.38130557 0 0 Z " fill="#13290E" transform="translate(301,330)"/>
<path d="M0 0 C-1.65 0.33 -3.3 0.66 -5 1 C-5 2.65 -5 4.3 -5 6 C-7.31 5.67 -9.62 5.34 -12 5 C-5.5 -1.96428571 -5.5 -1.96428571 0 0 Z " fill="#E48E4A" transform="translate(343,373)"/>
<path d="M0 0 C4.95 0 9.9 0 15 0 C10.91748364 3.06188727 10.43502071 3.37243503 5.75 3.1875 C4.85796875 3.16042969 3.9659375 3.13335937 3.046875 3.10546875 C2.37140625 3.07066406 1.6959375 3.03585937 1 3 C0.67 2.01 0.34 1.02 0 0 Z " fill="#E9E4D7" transform="translate(453,291)"/>
<path d="M0 0 C0 0.99 0 1.98 0 3 C-3.63 3.33 -7.26 3.66 -11 4 C-11 3.01 -11 2.02 -11 1 C-7.27569643 0.30710631 -3.78916254 -0.11144596 0 0 Z " fill="#E1DFD7" transform="translate(813,751)"/>
<path d="M0 0 C0.66 0.33 1.32 0.66 2 1 C1.47731534 3.76276177 0.89130413 6.3260876 0 9 C-0.99 9 -1.98 9 -3 9 C-2.5020163 5.26512223 -2.12508244 3.18762365 0 0 Z " fill="#E6E6DF" transform="translate(421,715)"/>
<path d="M0 0 C0.66 0 1.32 0 2 0 C3.18391699 3.69974059 3.27585754 7.13799438 3 11 C2.01 12.32 1.02 13.64 0 15 C0 10.05 0 5.1 0 0 Z " fill="#502915" transform="translate(385,530)"/>
<path d="M0 0 C1.91385532 2.87078299 2.96432952 5.33411656 4.125 8.5625 C4.47820313 9.53316406 4.83140625 10.50382813 5.1953125 11.50390625 C6 14 6 14 6 16 C5.34 16 4.68 16 4 16 C3.34 13.03 2.68 10.06 2 7 C1.34 7 0.68 7 0 7 C0 4.69 0 2.38 0 0 Z " fill="#E7E6E0" transform="translate(634,242)"/>
<path d="M0 0 C-0.33 0.99 -0.66 1.98 -1 3 C-4.49029418 4.47666292 -8.27436386 4.07164685 -12 4 C-10 1 -10 1 -7.125 0.3125 C-4 0 -4 0 0 0 Z " fill="#E5E2DA" transform="translate(255,808)"/>
<path d="M0 0 C2.97 0 5.94 0 9 0 C9 0.66 9 1.32 9 2 C9.99 2.33 10.98 2.66 12 3 C8.04 3 4.08 3 0 3 C0 2.01 0 1.02 0 0 Z " fill="#243227" transform="translate(360,704)"/>
<path d="M0 0 C0.66 0 1.32 0 2 0 C2.33 0.66 2.66 1.32 3 2 C4.32 2.66 5.64 3.32 7 4 C1.72 4 -3.56 4 -9 4 C-9 3.67 -9 3.34 -9 3 C-7.88625 2.87625 -6.7725 2.7525 -5.625 2.625 C-1.96896323 2.3534187 -1.96896323 2.3534187 0 0 Z " fill="#35522C" transform="translate(518,487)"/>
<path d="M0 0 C0.99 0.66 1.98 1.32 3 2 C2.34 2 1.68 2 1 2 C0.773125 2.804375 0.54625 3.60875 0.3125 4.4375 C-0.3371875 5.7059375 -0.3371875 5.7059375 -1 7 C-3.625 7.8125 -3.625 7.8125 -6 8 C-4.55746343 4.63408134 -2.66735273 2.48952921 0 0 Z " fill="#253B1C" transform="translate(371,187)"/>
<path d="M0 0 C2 3 2 3 2 6 C1.34 6 0.68 6 0 6 C0.33 8.64 0.66 11.28 1 14 C0.01 14.495 0.01 14.495 -1 15 C-1.33 10.38 -1.66 5.76 -2 1 C-1.34 0.67 -0.68 0.34 0 0 Z " fill="#E1DED5" transform="translate(340,682)"/>
<path d="M0 0 C0 0.66 0 1.32 0 2 C0.66 2.33 1.32 2.66 2 3 C-1.3 3.33 -4.6 3.66 -8 4 C-8 3.01 -8 2.02 -8 1 C-5.23735711 0.40267181 -2.83967231 0 0 0 Z " fill="#243127" transform="translate(777,735)"/>
<path d="M0 0 C-0.33 0.99 -0.66 1.98 -1 3 C-4 3 -7 3 -10 3 C-9 1 -9 1 -7.25 0.375 C-4.79549443 -0.03408426 -2.4840589 -0.06900164 0 0 Z " fill="#E6E5DE" transform="translate(716,710)"/>
<path d="M0 0 C1.98 0 3.96 0 6 0 C2.777893 3.8665284 -0.14922412 4.88059018 -5 6 C-5 5.01 -5 4.02 -5 3 C-3.35 2.67 -1.7 2.34 0 2 C0 1.34 0 0.68 0 0 Z " fill="#EAE7DE" transform="translate(774,677)"/>
<path d="M0 0 C1.95803507 -0.05389087 3.91648909 -0.09274217 5.875 -0.125 C7.51082031 -0.15980469 7.51082031 -0.15980469 9.1796875 -0.1953125 C12 0 12 0 14 2 C10.86967764 3.56516118 7.40926916 3.540337 4 3 C1.7421875 1.484375 1.7421875 1.484375 0 0 Z " fill="#E8E3D7" transform="translate(561,291)"/>
<path d="M0 0 C0.66 0 1.32 0 2 0 C3.625 2.5 3.625 2.5 5 5 C4.01 6.32 3.02 7.64 2 9 C1.34 8.67 0.68 8.34 0 8 C0 5.36 0 2.72 0 0 Z " fill="#C0C0B8" transform="translate(544,791)"/>
<path d="M0 0 C0.8125 1.625 0.8125 1.625 1 4 C-0.46818136 6.24609835 -2.15852858 8.02378677 -4 10 C-4 6.3538596 -3.91422066 4.02392714 -1.4375 1.25 C-0.7259375 0.63125 -0.7259375 0.63125 0 0 Z " fill="#253128" transform="translate(699,685)"/>
<path d="M0 0 C2.475 0.495 2.475 0.495 5 1 C3.63016497 4.16115776 3.0109362 4.9927092 0 7 C0 4.69 0 2.38 0 0 Z " fill="#F3F1EC" transform="translate(340,688)"/>
<path d="M0 0 C1.70884005 1.62339805 3.37446717 3.29319053 5 5 C5 5.66 5 6.32 5 7 C5.66 7.33 6.32 7.66 7 8 C5.68 8.33 4.36 8.66 3 9 C0 3.375 0 3.375 0 0 Z " fill="#E7E6DE" transform="translate(634,703)"/>
<path d="M0 0 C3.93673644 1.31224548 6.22719294 2.91910327 9 6 C6.69 5.67 4.38 5.34 2 5 C2 4.34 2 3.68 2 3 C1.34 3 0.68 3 0 3 C0 2.01 0 1.02 0 0 Z " fill="#172118" transform="translate(828,683)"/>
<path d="M0 0 C7.38461538 -0.36923077 7.38461538 -0.36923077 10.5 1.5 C10.995 1.995 11.49 2.49 12 3 C8.62858491 4.12380503 7.35507997 3.98197462 4 3 C1.6875 1.4375 1.6875 1.4375 0 0 Z " fill="#EBE7DE" transform="translate(589,675)"/>
<path d="M0 0 C5.94 1.485 5.94 1.485 12 3 C12 3.66 12 4.32 12 5 C7.25081338 4.53439347 3.89217595 3.83067342 0 1 C0 0.67 0 0.34 0 0 Z " fill="#492212" transform="translate(650,558)"/>
<path d="M0 0 C0.66 0.33 1.32 0.66 2 1 C2.40729228 3.32156597 2.74438677 5.6568787 3 8 C2.01 8 1.02 8 0 8 C-0.38063221 5.6739143 -0.71269945 3.33944736 -1 1 C-0.67 0.67 -0.34 0.34 0 0 Z " fill="#E7E5DB" transform="translate(644,275)"/>
<path d="M0 0 C3.63 0.33 7.26 0.66 11 1 C11 1.33 11 1.66 11 2 C7.37 2.33 3.74 2.66 0 3 C0 2.01 0 1.02 0 0 Z " fill="#E7E6DD" transform="translate(591,212)"/>
<path d="M0 0 C0.66 0 1.32 0 2 0 C3.125 3.75 3.125 3.75 2 6 C2.99 6.33 3.98 6.66 5 7 C4.34 7.66 3.68 8.32 3 9 C0.9375 6.1875 0.9375 6.1875 -1 3 C-0.67 2.01 -0.34 1.02 0 0 Z " fill="#EAE8E1" transform="translate(774,773)"/>
<path d="M0 0 C0.66 0.66 1.32 1.32 2 2 C1.625 5.125 1.625 5.125 1 8 C0.01 8 -0.98 8 -2 8 C-1.34 5.36 -0.68 2.72 0 0 Z " fill="#242F25" transform="translate(173,716)"/>
<path d="M0 0 C0.66 0.66 1.32 1.32 2 2 C-2.33273814 2.92844389 -5.66726186 2.92844389 -10 2 C-6.32653229 -0.44897847 -4.33643601 -0.31537716 0 0 Z " fill="#E6E4DC" transform="translate(464,676)"/>
<path d="M0 0 C0.99 0.33 1.98 0.66 3 1 C3.36923077 5.55384615 3.36923077 5.55384615 1.5 7.8125 C1.005 8.204375 0.51 8.59625 0 9 C-0.66 8.67 -1.32 8.34 -2 8 C-1.34 7.01 -0.68 6.02 0 5 C-0.39938767 2.90178785 -0.39938767 2.90178785 -1 1 C-0.67 0.67 -0.34 0.34 0 0 Z " fill="#4B2511" transform="translate(718,547)"/>
<path d="M0 0 C2.97 0 5.94 0 9 0 C7.02 0.99 7.02 0.99 5 2 C5 2.66 5 3.32 5 4 C3.02 4 1.04 4 -1 4 C-0.67 2.68 -0.34 1.36 0 0 Z " fill="#E88F49" transform="translate(344,371)"/>
<path d="M0 0 C-0.33 0.99 -0.66 1.98 -1 3 C-4.3 2.67 -7.6 2.34 -11 2 C-11 1.67 -11 1.34 -11 1 C-7.26562152 0.12132271 -3.83225427 -0.08912219 0 0 Z " fill="#EBE9E2" transform="translate(607,166)"/>
<path d="M0 0 C0.94875 0.04125 1.8975 0.0825 2.875 0.125 C3.205 1.115 3.535 2.105 3.875 3.125 C0.905 2.795 -2.065 2.465 -5.125 2.125 C-3.125 0.125 -3.125 0.125 0 0 Z " fill="#E4E1D9" transform="translate(227.125,779.875)"/>
<path d="M0 0 C1.4540625 0.0309375 1.4540625 0.0309375 2.9375 0.0625 C3.2675 1.0525 3.5975 2.0425 3.9375 3.0625 C1.0625 3.1875 1.0625 3.1875 -2.0625 3.0625 C-2.7225 2.4025 -3.3825 1.7425 -4.0625 1.0625 C-3.0625 0.0625 -3.0625 0.0625 0 0 Z " fill="#E7E6DC" transform="translate(637.0625,296.9375)"/>
<path d="M0 0 C-0.33 1.32 -0.66 2.64 -1 4 C-2.875 4.625 -2.875 4.625 -5 5 C-5.66 4.34 -6.32 3.68 -7 3 C-2.25 0 -2.25 0 0 0 Z " fill="#1F381A" transform="translate(386,179)"/>
<path d="M0 0 C0 2.97 0 5.94 0 9 C-0.66 9 -1.32 9 -2 9 C-3.35439668 6.29120665 -3.06501451 3.99066732 -3 1 C-1 0 -1 0 0 0 Z " fill="#3B5332" transform="translate(279,374)"/>
<path d="M0 0 C0.99 0.33 1.98 0.66 3 1 C2.67 2.65 2.34 4.3 2 6 C1.01 5.34 0.02 4.68 -1 4 C-0.67 2.68 -0.34 1.36 0 0 Z " fill="#243428" transform="translate(814,793)"/>
<path d="M0 0 C1.98 0.495 1.98 0.495 4 1 C4 1.66 4 2.32 4 3 C4.99 3.33 5.98 3.66 7 4 C6.67 4.66 6.34 5.32 6 6 C2.535 4.02 2.535 4.02 -1 2 C-0.67 1.34 -0.34 0.68 0 0 Z " fill="#EAE9E3" transform="translate(276,773)"/>
<path d="M0 0 C1.32 0 2.64 0 4 0 C3.34 2.31 2.68 4.62 2 7 C1.34 6.67 0.68 6.34 0 6 C-0.6875 3.5 -0.6875 3.5 -1 1 C-0.67 0.67 -0.34 0.34 0 0 Z " fill="#5E3C23" transform="translate(720,545)"/>
<path d="M0 0 C1.98 0.66 3.96 1.32 6 2 C6 2.33 6 2.66 6 3 C1.38 3 -3.24 3 -8 3 C-8 2.67 -8 2.34 -8 2 C-6.865625 1.855625 -5.73125 1.71125 -4.5625 1.5625 C-1.19222799 1.38828522 -1.19222799 1.38828522 0 0 Z " fill="#36522C" transform="translate(602,488)"/>
<path d="M0 0 C1.80411967 2.75924185 2.0127245 3.88972103 1.625 7.25 C1.41875 8.1575 1.2125 9.065 1 10 C0.34 9.34 -0.32 8.68 -1 8 C-0.96712417 5.27130593 -0.43602229 2.7033382 0 0 Z " fill="#E9E6DB" transform="translate(648,288)"/>
</svg>
