<svg width="20" height="21" viewBox="0 0 20 21" fill="none" xmlns="http://www.w3.org/2000/svg">
<path d="M17.275 18.8L17.975 18.1L9.99999 10.125C10.3167 9.74172 10.5627 9.30838 10.738 8.82505C10.9127 8.34172 11 7.83338 11 7.30005C11 6.05005 10.5627 4.99172 9.68799 4.12505C8.81266 3.25838 7.74999 2.82505 6.49999 2.82505H6.24999L9.32499 5.90005L5.07499 10.125L1.99999 7.05005V7.32505C1.99999 8.57505 2.43733 9.63338 3.31199 10.5C4.18733 11.3667 5.24999 11.8 6.49999 11.8C7.03333 11.8 7.53766 11.7124 8.01299 11.537C8.48766 11.3624 8.91666 11.1167 9.29999 10.8L17.275 18.8ZM15.875 20.225L8.97499 13.325C8.59166 13.475 8.19599 13.5917 7.78799 13.675C7.37933 13.7584 6.95833 13.8 6.52499 13.8C4.70833 13.8 3.17099 13.1707 1.91299 11.912C0.654327 10.654 0.0249939 9.11672 0.0249939 7.30005C0.0249939 6.60005 0.129327 5.92505 0.337994 5.27505C0.545994 4.62505 0.849994 4.02505 1.24999 3.47505L5.07499 7.30005L6.49999 5.90005L2.67499 2.05005C3.24166 1.63338 3.84999 1.32072 4.49999 1.11205C5.14999 0.904049 5.81666 0.800049 6.49999 0.800049C8.31666 0.800049 9.85433 1.42905 11.113 2.68705C12.371 3.94572 13 5.48338 13 7.30005C13 7.73338 12.9583 8.16238 12.875 8.58705C12.7917 9.01238 12.6667 9.41672 12.5 9.80005L19.375 16.675C19.7583 17.0584 19.9543 17.529 19.963 18.087C19.971 18.6457 19.7833 19.1167 19.4 19.5L18.725 20.2001C18.3417 20.6 17.8707 20.8041 17.312 20.812C16.754 20.8207 16.275 20.625 15.875 20.225Z" fill="white"/>
</svg>
