<svg width="345" height="250" viewBox="0 0 345 250" fill="none" xmlns="http://www.w3.org/2000/svg">
<g clip-path="url(#clip0_81_149)">
<path d="M285.649 249.643L286.582 249.623C286.221 237.744 285.113 225.91 283.268 214.213C279.23 189.17 272.517 172.722 263.313 165.328L262.777 166.203C284.276 183.475 285.638 248.984 285.649 249.643Z" fill="#2F2E41"/>
<path d="M273.977 249.388L274.911 249.367C274.891 248.184 274.307 220.3 264.714 212.593L264.178 213.467C273.384 220.863 273.973 249.104 273.977 249.388Z" fill="#2F2E41"/>
<path d="M257.465 166.3C260.044 166.3 262.134 163.908 262.134 160.958C262.134 158.008 260.044 155.616 257.465 155.616C254.887 155.616 252.797 158.008 252.797 160.958C252.797 163.908 254.887 166.3 257.465 166.3Z" fill="#454F2C"/>
<path d="M259.777 212.24C262.356 212.24 264.446 209.848 264.446 206.898C264.446 203.948 262.356 201.556 259.777 201.556C257.199 201.556 255.109 203.948 255.109 206.898C255.109 209.848 257.199 212.24 259.777 212.24Z" fill="#454F2C"/>
<path d="M276.153 169.502C275.276 175.914 277.563 181.65 277.563 181.65C277.563 181.65 281.272 176.988 282.149 170.576C283.027 164.164 280.74 158.428 280.74 158.428C280.74 158.428 277.031 163.089 276.153 169.502Z" fill="#2F2E41"/>
<path d="M260.893 185.076C266.259 187.182 271.593 185.604 271.593 185.604C271.593 185.604 268.228 180.613 262.863 178.507C257.497 176.401 252.163 177.978 252.163 177.978C252.163 177.978 255.528 182.97 260.893 185.076Z" fill="#2F2E41"/>
<path d="M260.721 225.76C263.149 226.633 265.736 226.76 268.221 226.13C266.643 223.832 264.518 222.104 262.101 221.156C259.685 220.207 257.081 220.079 254.602 220.785C256.226 223.028 258.336 224.743 260.721 225.76Z" fill="#2F2E41"/>
<path d="M151.77 82.9045L121.671 64.9954C121.671 64.9954 111.564 52.2587 105.216 46.5057C98.8683 40.7527 96.9143 44.979 96.9143 44.979L94.2459 50.0679L100.695 60.3305L118.114 77.2088L149.238 91.1583C149.725 92.0703 150.428 92.8056 151.265 93.2787C152.103 93.7517 153.04 93.9432 153.969 93.8308C154.898 93.7185 155.78 93.3069 156.512 92.6439C157.245 91.9809 157.798 91.0937 158.107 90.0853C158.416 89.077 158.469 87.9889 158.26 86.9475C158.05 85.9061 157.587 84.9541 156.923 84.2021C156.26 83.4501 155.423 82.929 154.511 82.6993C153.599 82.4696 152.649 82.5407 151.77 82.9045Z" fill="#9F616A"/>
<path d="M73.4803 67.4155L71.6983 54.941L66.6667 53.5016C66.6667 53.5016 62.6733 52.0942 61.7399 61.2982C60.8065 70.5022 61.5302 87.6865 61.5302 87.6865L51.3143 124.703C50.4645 125.156 49.7445 125.875 49.2381 126.777C48.7317 127.679 48.4598 128.728 48.454 129.8C48.4482 130.873 48.7087 131.925 49.2053 132.834C49.7018 133.744 50.414 134.473 51.2588 134.938C52.1036 135.402 53.0463 135.582 53.9771 135.457C54.9079 135.332 55.7886 134.907 56.5165 134.231C57.2444 133.556 57.7896 132.658 58.0886 131.641C58.3876 130.625 58.4282 129.532 58.2055 128.491L71.5936 93.444L73.4803 67.4155Z" fill="#9F616A"/>
<path d="M115.099 242.476L121.683 242.475L124.815 213.416L115.097 213.417L115.099 242.476Z" fill="#9F616A"/>
<path d="M113.419 240.016L126.386 240.016H126.386C128.578 240.016 130.68 241.012 132.229 242.785C133.779 244.558 134.65 246.963 134.65 249.471V249.778L113.42 249.779L113.419 240.016Z" fill="#2F2E41"/>
<path d="M43.2842 242.476L49.8686 242.475L53.0007 213.416L43.2833 213.417L43.2842 242.476Z" fill="#9F616A"/>
<path d="M41.6049 240.016L54.5716 240.016H54.5721C56.7636 240.016 58.8654 241.012 60.415 242.785C61.9647 244.558 62.8354 246.963 62.8355 249.471V249.778L41.6052 249.779L41.6049 240.016Z" fill="#2F2E41"/>
<path d="M75.7894 42.4967L64.8685 53.1641L73.831 85.6175L75.8533 92.8643C75.8533 92.8643 63.5051 105.892 55.8648 142.283C48.2245 178.675 35.7258 227.03 35.7258 227.03L62.1084 235.672L83.5723 153.35L108.819 217.934L111.734 237.036L134.201 229.456L128.901 181.549L102.403 98.621L105.155 76.6382C105.155 76.6382 109.289 65.6658 102.108 54.0491L99.8555 43.1336L91.7868 40.8595L75.7894 42.4967Z" fill="#2F2E41"/>
<path d="M93.9322 36.6975H64.4062C63.7988 36.6967 63.2166 36.4203 62.7871 35.9289C62.3576 35.4375 62.1161 34.7712 62.1154 34.0762V19.5137C62.1154 14.3384 63.9121 9.37498 67.1103 5.71544C70.3085 2.05591 74.6462 0 79.1692 0C83.6921 0 88.0298 2.05591 91.228 5.71544C94.4262 9.37498 96.223 14.3384 96.223 19.5137V34.0762C96.2223 34.7712 95.9807 35.4375 95.5513 35.9289C95.1218 36.4203 94.5395 36.6967 93.9322 36.6975Z" fill="#2F2E41"/>
<path d="M93.6446 28.914C96.9568 21.9809 94.73 13.2881 88.6709 9.49809C82.6117 5.70809 75.0148 8.2561 71.7025 15.1892C68.3903 22.1224 70.6171 30.8152 76.6763 34.6052C82.7354 38.3952 90.3324 35.8472 93.6446 28.914Z" fill="#9F616A"/>
<path d="M100.257 20.97H82.2031L82.0179 18.0041L81.0922 20.97H78.3123L77.9454 15.0916L76.1107 20.97H70.7315V20.6788C70.7355 16.5863 72.1581 12.6627 74.6871 9.76884C77.2162 6.87498 80.6451 5.24718 84.2217 5.24255H86.7672C90.3438 5.24717 93.7728 6.87497 96.3018 9.76882C98.8309 12.6627 100.253 16.5863 100.257 20.6788V20.97Z" fill="#2F2E41"/>
<path d="M82.0553 39.4159C81.9194 39.4158 81.7837 39.4021 81.6499 39.375L68.4297 36.7059V11.7051H82.9826L82.6223 12.1858C77.6094 18.8754 81.3861 29.7227 84.0834 35.5933C84.2822 36.0232 84.3709 36.5087 84.3391 36.9937C84.3074 37.4788 84.1566 37.9438 83.9041 38.3351C83.6926 38.6697 83.4147 38.9421 83.0933 39.13C82.772 39.3179 82.4162 39.4159 82.0553 39.4159Z" fill="#2F2E41"/>
<path d="M191.386 170.484L75.5231 217.357C72.6585 218.512 69.5104 218.319 66.7697 216.821C64.029 215.324 61.9193 212.643 60.9037 209.368L41.0001 144.953C39.9909 141.675 40.1593 138.073 41.4682 134.937C42.7771 131.801 45.1198 129.387 47.9822 128.224L163.845 81.3512C166.71 80.1964 169.858 80.3891 172.598 81.8868C175.339 83.3846 177.449 86.0651 178.464 89.3404L198.368 153.756C199.377 157.033 199.209 160.636 197.9 163.772C196.591 166.908 194.248 169.322 191.386 170.484Z" fill="white"/>
<path d="M198.368 153.756L198.473 154.096C199.44 157.227 199.28 160.668 198.029 163.664C196.779 166.66 194.539 168.964 191.803 170.071L75.3611 217.178C72.6259 218.285 69.6187 218.102 67.0009 216.672C64.3831 215.241 62.3691 212.679 61.4018 209.55L61.2965 209.209L198.368 153.756Z" fill="#F2F2F2"/>
<path d="M68.2927 143.18C60.6127 148.963 50.7699 144.611 47.3275 138.272L47.8763 137.916C54.4145 133.252 64.1242 135.85 68.2927 143.18Z" fill="#454F2C"/>
<path d="M164.534 159.586C162.654 160.346 160.961 160.311 159.502 159.482C156.205 157.608 154.658 152.049 153.415 147.583C153.053 146.284 152.711 145.056 152.363 144.053L152.358 144.038C151.753 142.048 151.859 139.865 152.652 137.964C153.445 136.062 154.862 134.595 156.595 133.882L172.179 127.577C174.056 126.818 175.747 126.852 177.205 127.68C180.501 129.553 182.05 135.109 183.294 139.574C183.657 140.875 183.999 142.105 184.349 143.11C184.957 145.102 184.854 147.288 184.061 149.193C183.268 151.098 181.849 152.568 180.114 153.283L164.534 159.586ZM153.011 143.768C153.367 144.795 153.712 146.032 154.076 147.342C155.28 151.665 156.777 157.046 159.811 158.771C161.113 159.511 162.582 159.533 164.302 158.837L179.882 152.534C181.442 151.892 182.719 150.571 183.433 148.859C184.148 147.146 184.243 145.18 183.698 143.388C183.345 142.373 182.999 141.131 182.632 139.815C181.428 135.493 179.929 130.114 176.896 128.392C175.595 127.653 174.128 127.632 172.41 128.326L156.827 134.631C155.268 135.273 153.993 136.592 153.279 138.303C152.565 140.013 152.469 141.977 153.011 143.768Z" fill="#3F3D56"/>
<path d="M65.0626 145.263C62.3241 146.349 59.374 146.535 56.5479 145.798C52.4207 144.761 48.675 141.941 46.7729 138.44L46.5823 138.089L47.4388 137.532C54.0754 132.802 64.0272 135.366 68.3228 142.918L68.5111 143.249L68.2227 143.466C67.2368 144.209 66.1757 144.812 65.0626 145.263ZM47.5589 138.368C49.4204 141.532 52.8844 144.064 56.6968 145.022C60.4028 146.013 64.3005 145.293 67.546 143.019C63.3441 136.064 54.0348 133.757 47.8003 138.21L47.5589 138.368Z" fill="#3F3D56"/>
<path d="M69.1331 191.496C68.1601 191.936 67.1007 192.066 66.0684 191.869C65.0362 191.673 64.0701 191.159 63.2738 190.382C62.3418 189.45 61.6353 188.259 61.2223 186.924C60.8093 185.589 60.7038 184.154 60.916 182.759C61.113 181.558 61.5967 180.444 62.3135 179.538C63.0303 178.633 63.9522 177.972 64.9769 177.629L85.7418 169.229C86.7273 168.761 87.8064 168.614 88.8602 168.804C89.9139 168.994 90.9015 169.513 91.7139 170.304C92.6454 171.236 93.3514 172.428 93.7638 173.763C94.1763 175.098 94.2813 176.532 94.0688 177.927C93.6587 180.379 92.212 182.185 90.0069 183.05L69.2416 191.451C69.2054 191.466 69.1692 191.481 69.1331 191.496ZM65.1061 178.419C64.2201 178.732 63.4253 179.315 62.8073 180.106C62.1892 180.897 61.7711 181.866 61.598 182.908C61.4069 184.165 61.5019 185.457 61.874 186.66C62.246 187.863 62.8826 188.936 63.7223 189.776C64.4421 190.474 65.3167 190.93 66.2492 191.094C67.1817 191.257 68.1357 191.122 69.0053 190.704L89.7804 182.299C90.6876 182 91.5046 181.419 92.1412 180.621C92.7777 179.823 93.2088 178.839 93.3868 177.778C93.5783 176.521 93.4837 175.229 93.1121 174.026C92.7405 172.823 92.1044 171.75 91.2651 170.91C90.5442 170.213 89.6692 169.757 88.7364 169.592C87.8035 169.427 86.849 169.56 85.9779 169.976L65.2015 178.381C65.1696 178.393 65.1376 178.406 65.1061 178.419Z" fill="#3F3D56"/>
<path d="M164.672 140.633L158.126 143.282C157.692 143.457 157.215 143.428 156.8 143.201C156.384 142.974 156.065 142.568 155.911 142.071C155.758 141.575 155.783 141.029 155.982 140.553C156.18 140.078 156.535 139.712 156.969 139.537L163.515 136.888C163.949 136.713 164.426 136.742 164.842 136.969C165.257 137.196 165.577 137.602 165.73 138.099C165.884 138.595 165.858 139.142 165.66 139.617C165.462 140.092 165.106 140.458 164.672 140.633Z" fill="#454F2C"/>
<path d="M166.524 146.626L159.978 149.274C159.544 149.449 159.067 149.42 158.651 149.193C158.236 148.966 157.916 148.56 157.763 148.063C157.609 147.567 157.635 147.021 157.833 146.545C158.031 146.07 158.387 145.704 158.821 145.529L165.367 142.88C165.801 142.705 166.278 142.734 166.693 142.961C167.109 143.188 167.428 143.594 167.582 144.091C167.735 144.588 167.71 145.134 167.512 145.609C167.313 146.084 166.958 146.45 166.524 146.626Z" fill="#454F2C"/>
<path d="M168.375 152.618L161.829 155.266C161.615 155.353 161.387 155.391 161.159 155.377C160.932 155.363 160.709 155.298 160.503 155.186C160.297 155.073 160.113 154.916 159.96 154.722C159.808 154.528 159.69 154.301 159.614 154.055C159.538 153.809 159.506 153.549 159.518 153.288C159.53 153.028 159.586 152.773 159.685 152.537C159.783 152.302 159.921 152.091 160.09 151.917C160.26 151.742 160.457 151.608 160.672 151.521L167.218 148.873C167.433 148.786 167.661 148.748 167.888 148.762C168.116 148.776 168.339 148.841 168.545 148.953C168.751 149.065 168.935 149.223 169.087 149.417C169.24 149.611 169.357 149.837 169.433 150.083C169.509 150.329 169.542 150.59 169.53 150.85C169.518 151.111 169.461 151.366 169.363 151.601C169.265 151.836 169.127 152.047 168.958 152.222C168.788 152.396 168.59 152.531 168.375 152.618Z" fill="#454F2C"/>
<path d="M176.128 135.999L169.582 138.647C169.367 138.734 169.139 138.772 168.912 138.758C168.684 138.744 168.461 138.679 168.255 138.567C168.05 138.455 167.865 138.297 167.713 138.103C167.56 137.909 167.443 137.683 167.367 137.437C167.291 137.191 167.258 136.93 167.27 136.67C167.282 136.409 167.339 136.154 167.437 135.919C167.535 135.683 167.673 135.473 167.842 135.298C168.012 135.124 168.21 134.989 168.425 134.902L174.971 132.254C175.405 132.078 175.882 132.107 176.297 132.334C176.713 132.561 177.032 132.968 177.186 133.464C177.339 133.961 177.314 134.507 177.115 134.982C176.917 135.458 176.562 135.823 176.128 135.999Z" fill="#454F2C"/>
<path d="M177.979 141.991L171.433 144.639C171.218 144.726 170.991 144.764 170.763 144.75C170.535 144.736 170.312 144.672 170.107 144.559C169.901 144.447 169.717 144.289 169.564 144.095C169.412 143.901 169.294 143.675 169.218 143.429C169.142 143.183 169.109 142.922 169.121 142.662C169.133 142.401 169.19 142.146 169.288 141.911C169.387 141.676 169.524 141.465 169.694 141.29C169.863 141.116 170.061 140.981 170.276 140.894L176.822 138.246C177.037 138.159 177.265 138.122 177.492 138.135C177.72 138.149 177.943 138.214 178.149 138.326C178.354 138.439 178.539 138.597 178.691 138.79C178.844 138.984 178.961 139.211 179.037 139.457C179.113 139.703 179.146 139.963 179.134 140.224C179.122 140.484 179.065 140.739 178.967 140.975C178.869 141.21 178.731 141.421 178.561 141.595C178.392 141.77 178.194 141.904 177.979 141.991Z" fill="#454F2C"/>
<path d="M179.831 147.983L173.285 150.632C172.851 150.807 172.374 150.778 171.958 150.551C171.543 150.324 171.223 149.918 171.07 149.421C170.916 148.924 170.942 148.378 171.14 147.903C171.338 147.428 171.694 147.062 172.128 146.886L178.674 144.238C178.888 144.151 179.116 144.114 179.344 144.127C179.571 144.141 179.795 144.206 180 144.319C180.206 144.431 180.39 144.589 180.543 144.783C180.695 144.976 180.813 145.203 180.889 145.449C180.965 145.695 180.998 145.955 180.985 146.216C180.973 146.476 180.917 146.731 180.818 146.967C180.72 147.202 180.582 147.413 180.413 147.587C180.243 147.762 180.046 147.896 179.831 147.983Z" fill="#454F2C"/>
<path d="M182.798 103.362L45.7264 158.816L45.9578 159.565L183.03 104.111L182.798 103.362Z" fill="#3F3D56"/>
<path d="M191.386 170.484L75.5231 217.357C72.6585 218.512 69.5104 218.319 66.7697 216.821C64.029 215.324 61.9193 212.643 60.9037 209.368L41.0001 144.953C39.9909 141.675 40.1593 138.073 41.4682 134.937C42.7771 131.801 45.1198 129.387 47.9822 128.224L163.845 81.3512C166.71 80.1964 169.858 80.3891 172.598 81.8868C175.339 83.3846 177.449 86.0651 178.464 89.3404L198.368 153.756C199.377 157.033 199.209 160.636 197.9 163.772C196.591 166.908 194.248 169.322 191.386 170.484ZM48.2136 128.973C45.5247 130.065 43.324 132.333 42.0944 135.279C40.8648 138.225 40.7067 141.609 41.6547 144.688L61.5583 209.103C62.5124 212.18 64.4942 214.698 67.0688 216.105C69.6434 217.512 72.6006 217.693 75.2917 216.608L191.154 169.735C193.843 168.643 196.044 166.375 197.274 163.429C198.503 160.483 198.661 157.1 197.713 154.02L177.81 89.6052C176.856 86.5284 174.874 84.0104 172.299 82.6034C169.725 81.1964 166.767 81.0155 164.076 82.1002L48.2136 128.973Z" fill="#3F3D56"/>
<path d="M344.533 250H0.466854C0.343038 250 0.224294 249.944 0.136743 249.844C0.0491921 249.743 6.91414e-06 249.608 6.91414e-06 249.466C6.91414e-06 249.324 0.0491921 249.188 0.136743 249.088C0.224294 248.988 0.343038 248.932 0.466854 248.932H344.533C344.657 248.932 344.776 248.988 344.863 249.088C344.951 249.188 345 249.324 345 249.466C345 249.608 344.951 249.743 344.863 249.844C344.776 249.944 344.657 250 344.533 250Z" fill="#CBCBCB"/>
</g>
<defs>
<clipPath id="clip0_81_149">
<rect width="345" height="250" fill="white"/>
</clipPath>
</defs>
</svg>
