<svg width="321" height="350" viewBox="0 0 321 350" fill="none" xmlns="http://www.w3.org/2000/svg">
<g clip-path="url(#clip0_80_542)">
<path d="M151.215 152.198C149.6 148.055 150.208 143.717 152.572 142.51C154.936 141.303 158.16 143.682 159.775 147.827C160.44 149.472 160.743 151.281 160.657 153.101L167.3 170.756L159.808 174.249L154.054 156.473C152.813 155.33 151.84 153.864 151.215 152.198Z" fill="#FFAFAF"/>
<path d="M197.124 159.694C201.174 164.129 200.92 171.697 196.586 175.753L175.359 195.617C173.042 197.784 169.604 197.018 168.143 194.009C162.564 183.52 161.513 182.945 158.271 172.195L167.414 168.481L172.569 175.978L183.824 160.557C187.225 155.896 193.297 155.503 197.124 159.694Z" fill="#454F2C"/>
<path d="M115.169 132.873V125.057H48.4828V132.873H115.169Z" fill="#D49A56"/>
<path d="M284.025 132.873V125.057H217.339V132.873H284.025Z" fill="#D49A56"/>
<path d="M85.4243 98.0618H74.0233C69.6016 98.0618 66.0172 102.225 66.0172 107.36V156.26C66.0172 161.396 69.6016 165.559 74.0233 165.559H85.4243C89.846 165.559 93.4304 161.396 93.4304 156.26V107.36C93.4304 102.225 89.846 98.0618 85.4243 98.0618Z" fill="#3F3D56"/>
<path d="M265.255 98.0618H253.854C249.433 98.0618 245.848 102.225 245.848 107.36V156.26C245.848 161.396 249.433 165.559 253.854 165.559H265.255C269.677 165.559 273.261 161.396 273.261 156.26V107.36C273.261 102.225 269.677 98.0618 265.255 98.0618Z" fill="#3F3D56"/>
<path d="M258.029 149.003H83.9113C77.8579 149.003 72.6781 143.982 71.5953 137.065L64.9366 94.5309C62.0408 76.033 68.0409 57.1869 80.5984 45.3278L93.7283 12.5189C96.7717 4.91378 103.404 0 110.625 0H208.706C213.92 0 218.93 2.56198 222.451 7.02928L246.577 37.6443C264.227 51.4585 274.241 75.3503 272.714 100.008L270.515 135.508C270.046 143.075 264.562 149.003 258.029 149.003Z" fill="#D49A56"/>
<path d="M228.313 42.3448H96.7653C94.4806 42.3448 92.3724 41.0172 91.1259 38.7941C89.8793 36.5704 89.6867 33.7939 90.6108 31.3675L97.5446 13.1606C98.5999 10.3897 100.967 8.56333 103.574 8.508L215.715 8.66656C217.851 8.6504 219.89 9.7666 221.184 11.731L233.658 29.7793C235.225 32.1584 235.489 35.3043 234.347 37.9907C233.205 40.6764 230.893 42.3448 228.313 42.3448Z" fill="white"/>
<path d="M248.041 90.4205C254.4 90.4205 259.555 84.4336 259.555 77.0484C259.555 69.6633 254.4 63.6764 248.041 63.6764C241.682 63.6764 236.528 69.6633 236.528 77.0484C236.528 84.4336 241.682 90.4205 248.041 90.4205Z" fill="white"/>
<path d="M96.72 90.4205C103.079 90.4205 108.234 84.4336 108.234 77.0484C108.234 69.6633 103.079 63.6764 96.72 63.6764C90.3613 63.6764 85.2065 69.6633 85.2065 77.0484C85.2065 84.4336 90.3613 90.4205 96.72 90.4205Z" fill="white"/>
<path d="M236.802 127.034H111.249V126.716C111.249 119.167 116.537 113.026 123.037 113.026H225.014C231.514 113.026 236.802 119.167 236.802 126.716V127.034Z" fill="#3F3D56"/>
<path d="M82.4437 48.1323C81.7643 48.1323 81.0835 47.8811 80.5119 47.3737L75.915 43.2919C75.4586 42.8865 74.8906 42.6632 74.3157 42.6632H64.2768C63.1282 42.6632 62.0989 41.9742 61.5234 40.8195C60.948 39.6653 60.9459 38.2855 61.5177 37.1288L63.9684 32.1703C64.4579 31.1797 65.3321 30.4982 66.3071 30.347L78.8671 28.4019C80.4326 28.1607 81.89 29.2594 82.338 31.0155L85.4947 43.3889C85.8423 44.7514 85.4778 46.2438 84.566 47.1921C83.9651 47.8164 83.2053 48.1323 82.4437 48.1323Z" fill="#D49A56"/>
<path d="M245.321 45.5852C244.56 45.5852 243.8 45.2693 243.199 44.645C242.287 43.6967 241.923 42.2043 242.27 40.8418L245.427 28.4684C245.875 26.7111 247.335 25.6086 248.898 25.8555L261.458 27.8C262.433 27.9511 263.307 28.6326 263.797 29.6232L266.247 34.5818C266.819 35.7384 266.817 37.1182 266.242 38.2724C265.666 39.4271 264.637 40.1161 263.488 40.1161H253.449C252.874 40.1161 252.306 40.3394 251.85 40.7448L247.253 44.8266C246.682 45.334 246.001 45.5852 245.321 45.5852Z" fill="#D49A56"/>
<path d="M55.2126 24.1588H48.4828V344.618H55.2126V24.1588Z" fill="#D49A56"/>
<path d="M287.696 24.1588H280.966V344.618H287.696V24.1588Z" fill="#D49A56"/>
<path d="M0.5 344.93C0.5 345.173 0.668434 345.369 0.878183 345.369H320.122C320.332 345.369 320.5 345.173 320.5 344.93C320.5 344.686 320.332 344.49 320.122 344.49H0.878183C0.668434 344.49 0.5 344.686 0.5 344.93Z" fill="#3F3D56"/>
<path d="M211.289 320.689V335.204L220.739 335.558L220.345 320.689H211.289Z" fill="#FFAFAF"/>
<path d="M209.419 328.766C209.291 328.766 209.166 328.785 209.045 328.825C207.339 329.391 197.468 339.627 194.483 342.751C194.114 343.136 193.918 343.688 193.945 344.263C193.972 344.835 194.217 345.355 194.618 345.69C196.882 347.584 201.519 350.579 207.146 349.369C209.735 348.812 212.347 348.461 214.651 348.153C219.585 347.491 223.482 346.969 223.482 344.94C223.482 341.498 222.667 332.427 221.644 332.046C221.551 332.014 221.444 332.097 221.32 332.298C219.755 334.842 214.38 333.488 214.152 333.43L214.092 333.414L214.058 333.355C214.03 333.307 211.398 328.766 209.419 328.766Z" fill="#2F2E41"/>
<path d="M193.609 320.689V335.204L203.059 335.558L202.665 320.689H193.609Z" fill="#FFAFAF"/>
<path d="M189.799 216.781L184.769 221.207L183.855 271.125L192.39 325.646L203.516 326.177L203.821 274.134L218.148 226.694L215.252 215.542L189.799 216.781Z" fill="#2F2E41"/>
<path d="M213.27 225.278L218.148 226.694L221.653 325.646L209.003 324.406L200.62 254.485L213.27 225.278Z" fill="#2F2E41"/>
<path d="M186.863 350C182.526 350 179.003 347.774 177.121 346.273C176.553 345.819 176.201 345.1 176.156 344.298C176.11 343.489 176.382 342.714 176.901 342.172C181.571 337.293 189.65 329.026 191.281 328.485C193.395 327.781 196.232 332.476 196.597 333.099C197.187 333.239 202.026 334.313 203.392 332.092C203.652 331.669 203.897 331.65 204.057 331.709C205.516 332.253 206.107 343.163 206.107 344.94C206.107 347.284 202.29 347.796 197.007 348.504C194.707 348.813 192.1 349.162 189.522 349.717C188.608 349.913 187.719 350 186.863 350Z" fill="#2F2E41"/>
<path d="M200.25 152.125L203.722 160.249L190.6 167.61L190.76 154.586L200.25 152.125Z" fill="#FFAFAF"/>
<path d="M190.647 158.271C197.168 158.271 202.454 152.131 202.454 144.557C202.454 136.983 197.168 130.843 190.647 130.843C184.125 130.843 178.839 136.983 178.839 144.557C178.839 152.131 184.125 158.271 190.647 158.271Z" fill="#FFAFAF"/>
<path d="M190.567 164.443L202.674 156.133C211.554 163.366 218.949 165.058 219.184 177.652L217.547 207.693L217.643 220.63C217.683 226.062 213.904 230.489 209.227 230.489H191.939C187.363 230.489 183.955 225.587 184.918 220.392L188.182 202.792L184.696 168.491L190.567 164.443Z" fill="#454F2C"/>
<path d="M202.789 151.457L200.606 153.273C200.606 153.273 199.964 145.357 199.077 145.005C198.191 144.654 196.995 146.478 196.995 146.478L196.122 149.451L193.234 148.053C193.234 148.053 189.89 145.961 188.708 145.493C187.526 145.024 187.705 141.047 187.705 141.047C187.705 141.047 173.518 143.303 175.65 133.804C175.65 133.804 176.384 126.815 177.955 128.204C179.526 129.593 179.547 126.154 179.547 126.154L183.106 125.266C183.106 125.266 187.991 117.624 197.626 124.125C207.261 130.626 202.789 151.457 202.789 151.457Z" fill="#2F2E41"/>
<path d="M178.147 181.812L174.957 181.248C174.066 181.09 173.448 180.115 173.584 179.081L173.974 176.109C172.816 176.94 171.967 178.33 171.745 180.015C171.404 182.615 172.669 185.063 174.676 186.017L171.885 207.294C171.878 207.348 171.88 207.4 171.878 207.453C169.712 207.662 167.869 209.565 167.528 212.17C167.327 213.697 167.68 215.174 168.412 216.326L168.764 213.649C168.899 212.615 169.739 211.897 170.63 212.055L173.82 212.619C174.71 212.777 175.328 213.752 175.192 214.787L174.803 217.759C175.96 216.928 176.81 215.537 177.031 213.852C177.373 211.246 176.102 208.793 174.087 207.844C174.099 207.793 174.114 207.744 174.121 207.69L176.912 186.413C179.073 186.197 180.908 184.297 181.249 181.697C181.449 180.17 181.096 178.693 180.364 177.541L180.013 180.218C179.877 181.252 179.037 181.97 178.147 181.812Z" fill="#3F3D56"/>
<path d="M172.205 200.326C168.377 199.369 165.737 196.221 166.308 193.296C166.878 190.371 170.444 188.776 174.273 189.734C175.807 190.092 177.239 190.885 178.447 192.048L194.618 196.35L192.578 205.422L176.853 200.218C175.324 200.697 173.73 200.734 172.205 200.326Z" fill="#FFAFAF"/>
<path d="M204.705 161.927C210.184 160.785 215.27 165.524 215.499 171.983L216.618 203.616C216.74 207.068 214.165 209.822 211.212 209.396C200.635 208.364 201.378 209.622 192.009 206.254L192.637 194.691L201.366 194.538L197.39 174.857C196.188 168.909 199.527 163.007 204.705 161.927Z" fill="#454F2C"/>
</g>
<defs>
<clipPath id="clip0_80_542">
<rect width="320" height="350" fill="white" transform="translate(0.5)"/>
</clipPath>
</defs>
</svg>
