<svg width="345" height="320" viewBox="0 0 345 320" fill="none" xmlns="http://www.w3.org/2000/svg">
<path d="M64.4521 119.263L52.7223 119.502L56.1378 104.623L63.8844 106.845C62.6526 110.469 62.9147 114.634 64.4521 119.263Z" fill="#FFB9B9"/>
<path d="M337.74 60.4011L336.559 60.6118L344.479 19.7848C345.063 17.0586 345.157 14.1789 344.756 11.3914C344.407 9.11388 343.545 7.04489 342.293 5.478C340.98 3.9105 339.372 2.88457 337.654 2.51862C335.561 2.07344 333.424 2.20482 331.369 2.90512L277.543 19.7434C275.664 20.3695 273.866 21.3856 272.211 22.7566C270.41 24.2273 268.736 25.9712 267.219 27.9556C265.658 29.9791 264.257 32.2231 263.039 34.6503C261.849 36.9994 260.879 39.5447 260.151 42.2263L203.835 254.982C202.899 258.48 202.29 262.128 202.025 265.837C201.778 269.13 201.894 272.456 202.37 275.701C202.766 278.521 203.595 281.193 204.8 283.539C205.906 285.673 207.464 287.287 209.261 288.16L266.131 315.051C268.657 316.233 271.369 316.455 273.98 315.693C276.77 314.858 279.395 313.198 281.671 310.829C284.227 308.191 286.425 304.956 288.165 301.271C290.091 297.223 291.53 292.775 292.427 288.099L330.555 91.5568L331.751 91.4254L337.74 60.4011Z" fill="#2F2E41"/>
<path d="M333.626 58.1407L332.445 58.3514L340.365 17.5244C340.949 14.7982 341.044 11.9186 340.642 9.13106C340.294 6.8535 339.432 4.7845 338.179 3.21764C336.867 1.65013 335.259 0.624207 333.54 0.25826C331.447 -0.186943 329.311 -0.0555593 327.255 0.644754L273.429 17.483C271.55 18.1091 269.752 19.1252 268.097 20.4962C266.296 21.9669 264.622 23.7109 263.104 25.6953C261.544 27.7187 260.143 29.9627 258.925 32.39C257.735 34.739 256.765 37.2844 256.037 39.966L199.721 252.721C198.785 256.22 198.176 259.868 197.911 263.577C197.664 266.87 197.78 270.195 198.256 273.441C198.652 276.26 199.481 278.932 200.686 281.279C201.792 283.413 203.349 285.026 205.147 285.9L262.017 312.791C264.543 313.973 267.255 314.194 269.866 313.433C272.656 312.598 275.281 310.938 277.557 308.568C280.113 305.931 282.311 302.695 284.05 299.011C285.977 294.963 287.416 290.515 288.313 285.839L326.441 89.2964L327.637 89.165L333.626 58.1407Z" fill="#090814"/>
<path d="M326.778 5.97342L318.866 8.35394C318.953 9.29412 318.884 10.249 318.667 11.1482C318.42 12.2006 318.063 13.1977 317.606 14.1076C316.577 16.172 315.204 17.8691 313.601 19.0574C313.409 19.1975 313.218 19.3269 313.027 19.4457C312.836 19.5645 312.646 19.6722 312.455 19.7688C312.265 19.8655 312.077 19.9509 311.89 20.0251C311.702 20.0993 311.517 20.1619 311.334 20.2128L280.399 28.8162C279.825 28.9994 279.228 28.99 278.657 28.789C278.198 28.6197 277.792 28.2448 277.505 27.7237C277.216 27.1638 277.053 26.4997 277.035 25.8137C277.012 24.9385 277.112 24.0654 277.332 23.2432C277.387 23.0214 277.449 22.7981 277.519 22.5731C277.59 22.3482 277.666 22.1233 277.749 21.8984C277.831 21.6723 277.921 21.4474 278.018 21.2237C278.116 20.9999 278.219 20.7764 278.327 20.5531L272.469 22.3145C271.058 22.7687 269.706 23.5198 268.461 24.5411C267.102 25.6408 265.838 26.9489 264.694 28.4404C263.515 29.9642 262.457 31.6562 261.539 33.4879C260.643 35.2579 259.915 37.1772 259.372 39.1995L203.163 253.802C202.464 256.439 202.015 259.189 201.827 261.984C201.653 264.45 201.755 266.939 202.129 269.364C202.44 271.459 203.077 273.437 203.995 275.164C204.837 276.731 206.011 277.902 207.357 278.518L264.646 304.083C266.536 304.915 268.554 305.039 270.491 304.442C272.553 303.794 274.491 302.545 276.172 300.781C278.053 298.825 279.673 296.435 280.958 293.718C282.381 290.733 283.448 287.456 284.121 284.011L336.464 18.7118C336.904 16.6866 336.985 14.5468 336.702 12.4698C336.456 10.7677 335.829 9.21356 334.909 8.02427C333.945 6.83523 332.755 6.04719 331.477 5.75205C329.916 5.39173 328.318 5.46702 326.778 5.97342Z" fill="white"/>
<path d="M296.056 107.613H182.095V54.571H296.058L296.056 107.613Z" fill="white"/>
<path d="M262.737 126.333H151.047V200.697H262.737V126.333Z" fill="white"/>
<path d="M169.192 162.044C173.654 162.044 177.271 157.076 177.271 150.947C177.271 144.819 173.654 139.851 169.192 139.851C164.73 139.851 161.113 144.819 161.113 150.947C161.113 157.076 164.73 162.044 169.192 162.044Z" fill="#454F2C"/>
<path d="M187.85 143.549C187.497 143.558 187.161 143.757 186.914 144.103C186.666 144.448 186.528 144.914 186.528 145.399C186.528 145.884 186.666 146.349 186.914 146.695C187.161 147.041 187.497 147.239 187.85 147.248H251.328C251.681 147.239 252.017 147.041 252.265 146.695C252.512 146.349 252.651 145.884 252.651 145.399C252.651 144.914 252.512 144.448 252.265 144.103C252.017 143.757 251.681 143.558 251.328 143.549H187.85Z" fill="#E6E6E6"/>
<path d="M187.851 154.646C187.498 154.654 187.161 154.851 186.913 155.196C186.665 155.542 186.526 156.007 186.525 156.492C186.525 156.976 186.662 157.442 186.909 157.789C187.156 158.135 187.492 158.335 187.845 158.345H215.166C215.519 158.336 215.855 158.137 216.102 157.791C216.35 157.446 216.488 156.98 216.488 156.495C216.488 156.011 216.35 155.545 216.102 155.199C215.855 154.853 215.519 154.655 215.166 154.646H187.851Z" fill="#E6E6E6"/>
<path d="M162.995 172.386C161.971 172.386 161.137 173.214 161.137 174.235C161.137 175.256 161.971 176.085 162.995 176.085H250.575C251.599 176.085 252.433 175.256 252.433 174.235C252.433 173.214 251.599 172.386 250.575 172.386H162.995Z" fill="#E6E6E6"/>
<path d="M162.995 183.482C161.971 183.482 161.137 184.311 161.137 185.332C161.137 186.353 161.971 187.181 162.995 187.181H230.415C231.44 187.181 232.273 186.353 232.273 185.332C232.273 184.311 231.44 183.482 230.415 183.482H162.995Z" fill="#E6E6E6"/>
<path d="M263.874 202.257H149.911V124.774H263.874V202.257ZM152.183 199.137H261.602V127.894H152.183V199.137Z" fill="#E6E6E6"/>
<path d="M201.374 91.8403C205.836 91.8403 209.453 86.8722 209.453 80.7438C209.453 74.6154 205.836 69.6473 201.374 69.6473C196.912 69.6473 193.295 74.6154 193.295 80.7438C193.295 86.8722 196.912 91.8403 201.374 91.8403Z" fill="#454F2C"/>
<path d="M220.032 73.346C219.853 73.3416 219.676 73.3862 219.51 73.4772C219.343 73.5681 219.192 73.7036 219.065 73.8758C218.937 74.048 218.836 74.2533 218.766 74.4799C218.697 74.7064 218.662 74.9496 218.662 75.1953C218.662 75.441 218.697 75.6842 218.766 75.9108C218.836 76.1373 218.937 76.3427 219.065 76.5148C219.192 76.687 219.343 76.8225 219.51 76.9135C219.676 77.0044 219.853 77.049 220.032 77.0446H283.511C283.863 77.036 284.2 76.8373 284.447 76.4914C284.694 76.1456 284.833 75.6801 284.833 75.1953C284.833 74.7105 284.694 74.2451 284.447 73.8992C284.2 73.5533 283.863 73.3547 283.511 73.346H220.032Z" fill="#E6E6E6"/>
<path d="M220.033 84.4424C219.854 84.4375 219.676 84.4816 219.51 84.5721C219.344 84.6626 219.192 84.7977 219.064 84.9695C218.936 85.1413 218.835 85.3463 218.765 85.5727C218.696 85.799 218.66 86.0421 218.659 86.2878C218.659 86.5334 218.694 86.7767 218.763 87.0035C218.832 87.2302 218.933 87.4359 219.06 87.6084C219.188 87.7809 219.339 87.9168 219.505 88.0083C219.671 88.0998 219.848 88.1449 220.027 88.141H269.976C270.154 88.1454 270.332 88.1008 270.498 88.0099C270.664 87.9189 270.816 87.7834 270.943 87.6112C271.071 87.4391 271.172 87.2337 271.242 87.0071C271.311 86.7806 271.346 86.5374 271.346 86.2917C271.346 86.046 271.311 85.8028 271.242 85.5762C271.172 85.3497 271.071 85.1443 270.943 84.9722C270.816 84.8 270.664 84.6645 270.498 84.5735C270.332 84.4826 270.154 84.438 269.976 84.4424H220.033Z" fill="#E6E6E6"/>
<path d="M296.056 107.613H182.095V54.571H296.058L296.056 107.613ZM184.366 104.493H293.784V57.6926H184.365L184.366 104.493Z" fill="#E6E6E6"/>
<path d="M64.8813 310.894H70.8436L73.6799 284.097H64.88L64.8813 310.894Z" fill="#FFB6B6"/>
<path d="M14.302 302.909L18.9417 306.401L30.9882 283.562L24.1408 278.413L14.302 302.909Z" fill="#FFB6B6"/>
<path d="M64.6447 296.023C64.194 296.023 63.7587 295.797 63.4202 295.388C63.0817 294.979 62.8631 294.415 62.8051 293.801L56.4791 226.848C56.4511 226.552 56.3557 226.276 56.2065 226.059C56.0573 225.841 55.862 225.694 55.6484 225.639C55.4348 225.583 55.2139 225.622 55.0172 225.749C54.8204 225.876 54.658 226.085 54.5529 226.346L28.1894 292.044C27.9718 292.581 27.6214 292.992 27.2017 293.204C26.782 293.415 26.321 293.413 25.9025 293.197L20.1565 290.188C19.9254 290.067 19.7141 289.884 19.5352 289.649C19.3564 289.415 19.2134 289.133 19.1148 288.822C19.0161 288.51 18.9638 288.175 18.9609 287.835C18.958 287.495 19.0045 287.158 19.0977 286.844L37.3603 225.224C37.4065 225.067 37.4378 224.903 37.4534 224.736C39.9269 198.44 46.2206 185.067 48.0903 181.595C48.227 181.34 48.3169 181.043 48.3525 180.73C48.3881 180.417 48.3684 180.097 48.295 179.797L48.0365 178.738C47.9337 178.317 47.9127 177.867 47.9753 177.432C48.038 176.997 48.1822 176.592 48.3937 176.257C55.1316 165.716 66.8761 171.468 66.9937 171.527L67.0527 171.557L67.0898 171.626C80.2584 196.431 75.3894 276.998 74.2798 292.897C74.238 293.494 74.044 294.052 73.7319 294.472C73.4198 294.892 73.0098 295.146 72.5742 295.191L64.7874 296.015C64.7417 296.021 64.6926 296.023 64.6447 296.023Z" fill="#090814"/>
<path d="M86.1427 313.723C84.3508 315.875 82.0387 317.032 79.6586 316.967C75.2675 316.878 67.0635 316.698 65.1588 316.587C62.6099 316.429 63.4554 313.375 63.5377 311.271V311.063C63.5674 308.954 63.8678 304.385 64.3763 303.671C64.8848 302.957 66.6244 306.85 66.6244 306.85C66.6244 306.85 70.0214 308.24 70.9561 304.068C71.8907 299.896 73.7885 299.494 73.7885 299.494C74.6504 298.97 74.6935 302.117 74.6935 302.117L81.8839 307.321L86.1031 308.248C86.2384 308.337 86.3616 308.426 86.4763 308.512C88.3844 310.015 87.5389 312.027 86.1427 313.723Z" fill="#090814"/>
<path d="M60.822 109.295C66.8999 109.295 71.827 102.527 71.827 94.1794C71.827 85.8314 66.8999 79.0641 60.822 79.0641C54.7442 79.0641 49.8171 85.8314 49.8171 94.1794C49.8171 102.527 54.7442 109.295 60.822 109.295Z" fill="#FFB8B8"/>
<path d="M43.6708 192.908L76.7947 197.051C73.9075 183.261 71.2607 169.515 73.4175 155.821C76.156 143.596 76.4107 136.822 69.1863 131.066L64.3082 116.12L55.4798 115.679L51.1749 114.058C47.6974 121.738 46.2748 130.841 47.1514 139.805C49.0233 159.297 48.5178 177.385 43.6708 192.908Z" fill="#454F2C"/>
<path d="M330.269 317.176H0V315.943H330.42L330.269 317.176Z" fill="#CBCBCB"/>
<path d="M113.041 180.472L31.1141 260.046L11.4816 221.914L93.4085 142.34L113.041 180.472Z" fill="white"/>
<path d="M39.1283 235.238C42.334 232.124 43.0952 226.031 40.8284 221.628C38.5616 217.225 34.1253 216.18 30.9196 219.293C27.7139 222.406 26.9528 228.5 29.2195 232.903C31.4863 237.306 35.9226 238.351 39.1283 235.238Z" fill="#454F2C"/>
<path d="M33.3845 316.234C31.1214 317.254 28.6626 317.078 26.4891 315.74C22.47 313.3 14.9655 308.728 13.243 307.603C10.9407 306.089 12.5884 303.73 13.2623 301.839L13.3216 301.647C13.9502 299.718 15.528 295.672 16.1991 295.287C16.8702 294.902 17.3647 299.422 17.3647 299.422C17.3647 299.422 20.0975 302.527 22.146 299.186C24.1945 295.846 26.0567 296.497 26.0567 296.497C26.9996 296.477 26.1434 299.399 26.1434 299.399L31.2842 308.053L34.9062 311.173C35.0058 311.327 35.0938 311.475 35.1748 311.616C36.5045 314.023 35.1537 315.422 33.3845 316.234Z" fill="#090814"/>
<path d="M45.7056 208.921C45.4488 209.171 45.2747 209.55 45.2215 209.976C45.1684 210.401 45.2405 210.839 45.422 211.191C45.6036 211.544 45.8797 211.783 46.1896 211.856C46.4995 211.929 46.8179 211.83 47.0746 211.581L92.7096 167.258C92.8367 167.134 92.9449 166.977 93.0279 166.797C93.111 166.616 93.1673 166.414 93.1936 166.203C93.2199 165.993 93.2158 165.777 93.1814 165.568C93.147 165.36 93.083 165.162 92.9931 164.988C92.9032 164.813 92.7892 164.665 92.6575 164.55C92.5258 164.436 92.379 164.359 92.2255 164.323C92.0721 164.287 91.9149 164.292 91.7631 164.34C91.6112 164.387 91.4676 164.475 91.3405 164.598L45.7056 208.921Z" fill="#E6E6E6"/>
<path d="M49.8123 216.898C49.685 217.021 49.5766 217.177 49.4932 217.358C49.4099 217.538 49.3533 217.74 49.3266 217.951C49.3 218.161 49.3038 218.377 49.3379 218.586C49.372 218.795 49.4357 218.992 49.5253 219.167C49.6149 219.342 49.7288 219.491 49.8603 219.605C49.9919 219.72 50.1385 219.797 50.292 219.834C50.4454 219.871 50.6025 219.865 50.7545 219.818C50.9064 219.772 51.0502 219.684 51.1775 219.561L51.1814 219.557L87.0847 184.684C87.3415 184.435 87.5156 184.056 87.5687 183.63C87.6219 183.204 87.5498 182.767 87.3683 182.414C87.1867 182.062 86.9106 181.823 86.6007 181.75C86.2908 181.676 85.9724 181.776 85.7157 182.025L49.8123 216.898Z" fill="#E6E6E6"/>
<path d="M113.041 180.472L31.1141 260.046L11.4816 221.914L93.4085 142.34L113.041 180.472ZM31.5924 256.217L110.253 179.815L92.9298 146.169L14.2697 222.571L31.5924 256.217Z" fill="#E6E6E6"/>
<path d="M69.7788 205.133L64.4513 165.131L64.8266 140.391L52.8193 139.875L55.0709 167.706L62.8349 206.296C62.1905 207.372 61.7957 208.688 61.7013 210.075C61.6069 211.462 61.8174 212.856 62.3054 214.077C62.7935 215.299 63.5368 216.291 64.4395 216.926C65.3421 217.561 66.3627 217.81 67.3694 217.641C68.3762 217.472 69.3229 216.893 70.0875 215.977C70.852 215.062 71.3994 213.853 71.6588 212.506C71.9182 211.159 71.8778 209.737 71.5429 208.422C71.2079 207.107 70.5938 205.96 69.7796 205.129L69.7788 205.133Z" fill="#FFB8B8"/>
<path d="M52.0691 142.454C56.4194 140.179 61.227 140.179 65.5773 142.454L64.8266 121.839C64.8264 119.653 64.1938 117.556 63.0679 116.009C61.942 114.463 60.4151 113.595 58.823 113.595C57.231 113.595 55.7043 114.464 54.5786 116.01C53.4529 117.556 52.8204 119.653 52.8202 121.839L52.0691 142.454Z" fill="#454F2C"/>
<path d="M42.7744 116.9C42.7744 116.9 43.3726 123.136 48.9164 123.339L60.1636 123.754C60.1636 123.754 50.6574 91.9787 54.5663 95.5584C58.4752 99.1381 68.898 84.1293 68.898 84.1293L71.9735 92.0521C71.9735 92.0521 79.3212 88.3973 71.178 79.4482C71.178 79.4482 61.4619 69.1306 51.1473 75.3263C40.8327 81.5221 42.7744 116.9 42.7744 116.9Z" fill="#090814"/>
</svg>
