<svg width="377" height="245" viewBox="0 0 377 245" fill="none" xmlns="http://www.w3.org/2000/svg">
<path d="M75.9897 173.748C74.8818 173.75 73.8197 174.361 73.0364 175.446C72.253 176.531 71.8124 178.003 71.8111 179.538V193.083C71.8124 194.617 72.253 196.089 73.0364 197.174C73.8197 198.26 74.8818 198.87 75.9897 198.872H81.2897C82.3976 198.87 83.4597 198.26 84.243 197.174C85.0264 196.089 85.467 194.617 85.4683 193.083V179.538C85.467 178.003 85.0264 176.531 84.243 175.446C83.4597 174.361 82.3976 173.75 81.2897 173.748H75.9897Z" fill="#713519"/>
<path d="M173.963 199.323H168.663C167.469 199.321 166.324 198.663 165.48 197.493C164.636 196.323 164.161 194.737 164.159 193.083V179.538C164.161 177.884 164.636 176.297 165.48 175.128C166.324 173.958 167.469 173.3 168.663 173.298H173.963C175.157 173.3 176.302 173.958 177.146 175.128C177.991 176.297 178.465 177.884 178.467 179.538V193.083C178.465 194.737 177.991 196.323 177.146 197.493C176.302 198.663 175.157 199.321 173.963 199.323Z" fill="#713519"/>
<path d="M170.446 188.478H79.1812C75.0277 188.478 71.6486 185.085 71.6486 180.915V156.6L76.1785 149.99H174.33L177.979 156.613V180.915C177.979 185.085 174.6 188.478 170.446 188.478Z" fill="#CCCCCC"/>
<path d="M173.904 162.154H76.6989L75.7111 141.168L76.3397 139.02L79.9936 126.562H169.952L174.892 140.709L173.904 162.154Z" fill="#CCCCCC"/>
<path d="M174.727 140.754L174.002 156.522H152.616V144.809L174.119 139.015L174.727 140.754Z" fill="white"/>
<path d="M97.6623 144.809V156.522H76.5976L75.8756 141.204L76.4903 139.105L97.6623 144.809Z" fill="white"/>
<path d="M169.409 130.166H80.5347L90.0139 86.3882C90.4005 84.5801 91.1966 82.9924 92.2847 81.8595C93.3728 80.7267 94.695 80.1089 96.056 80.0975L154.915 79.3207C156.337 79.3016 157.723 79.9425 158.852 81.1412C159.98 82.3399 160.787 84.0275 161.144 85.9352L169.409 130.166Z" fill="#CCCCCC"/>
<path d="M162.568 126.027L87.362 124.791C87.267 124.79 87.1735 124.757 87.0891 124.697C87.0047 124.636 86.9318 124.549 86.8762 124.442C86.8206 124.335 86.7839 124.211 86.769 124.081C86.7542 123.951 86.7615 123.818 86.7906 123.693L94.0002 92.5265C94.0395 92.3566 94.1167 92.2085 94.2207 92.1033C94.3247 91.9982 94.4502 91.9415 94.5789 91.9415H155.068C155.197 91.9415 155.323 91.9981 155.426 92.1032C155.53 92.2083 155.608 92.3564 155.647 92.5262L163.154 124.928C163.183 125.055 163.19 125.19 163.175 125.321C163.159 125.453 163.121 125.578 163.064 125.685C163.007 125.793 162.932 125.88 162.846 125.939C162.759 125.998 162.664 126.029 162.568 126.027Z" fill="white"/>
<path d="M135.107 84.663H114.837C114.666 84.663 114.511 84.43 114.432 84.0547C114.354 83.6705 114.365 83.2618 114.465 82.8871L116.136 77.0302C116.222 76.7317 116.361 76.5535 116.508 76.5535H133.436C133.584 76.5535 133.723 76.7317 133.808 77.0302L135.48 82.8871C135.579 83.2618 135.59 83.6705 135.512 84.0547C135.433 84.43 135.278 84.663 135.107 84.663Z" fill="#454F2C"/>
<path d="M80.5907 129.265H67.2587V125.205C67.2598 123.893 67.6366 122.634 68.3064 121.706C68.9763 120.778 69.8845 120.256 70.8318 120.255H80.5907V129.265Z" fill="#CCCCCC"/>
<path d="M182.694 129.265H169.362V120.255H179.121C180.068 120.256 180.976 120.778 181.646 121.706C182.316 122.634 182.693 123.893 182.694 125.205V129.265Z" fill="#CCCCCC"/>
<path d="M65.699 192.556L0.522552 224.996L0.799231 226.063L65.9757 193.623L65.699 192.556Z" fill="#713519"/>
<path d="M183.843 192.558L183.566 193.625L248.745 226.057L249.021 224.99L183.843 192.558Z" fill="#713519"/>
<path d="M128.598 216.08H124.697V209.098H128.598V216.08ZM128.598 202.116H124.697V195.135H128.598V202.116Z" fill="#E6E6E6"/>
<path d="M128.598 245H124.697V238.019H128.598V245ZM128.598 231.037H124.697V224.055H128.598V231.037Z" fill="#E6E6E6"/>
<path d="M300.015 220.883H295.718L293.673 197.921H300.015V220.883Z" fill="#FFB8B8"/>
<path d="M301.111 226.654H287.256V226.411C287.258 224.43 287.827 222.531 288.838 221.13C289.849 219.73 291.219 218.942 292.649 218.939H301.111L301.111 226.654Z" fill="#2F2E41"/>
<path d="M355.422 209.602L351.739 212.669L341.451 194.445L346.887 189.92L355.422 209.602Z" fill="#FFB8B8"/>
<path d="M346.631 223.653L346.541 223.445C345.806 221.746 345.588 219.712 345.934 217.79C346.28 215.868 347.162 214.214 348.386 213.192L355.639 207.155L358.507 213.767L346.631 223.653Z" fill="#2F2E41"/>
<path d="M301.132 216.144L301.058 216.144C298.968 216.135 296.879 215.968 294.802 215.645C294.011 215.537 293.152 215.419 292.117 215.302L292.081 215.292C291.375 215.002 291.356 205.828 291.655 174.427C291.809 158.343 291.982 140.114 291.775 128.505L291.773 128.391L291.836 128.316C299.5 119.079 309.343 115.617 319.552 118.566L319.627 118.588L319.667 118.68C323.89 128.58 330.266 142.84 336.432 156.63C350.586 188.287 354.635 197.598 354.191 198.3L354.137 198.357C353.171 199.027 352.445 199.542 351.828 199.981C349.762 201.448 348.907 202.056 344.313 204.677L344.199 204.742L344.116 204.616C329.754 182.811 317.802 158.454 310.41 135.938C309.546 143.625 308.497 153.662 307.39 164.268C304.204 194.766 302.051 214.848 301.184 216.071L301.132 216.144Z" fill="#2F2E41"/>
<path d="M323.439 31.1334C324.885 22.8589 326.111 13.5261 323.383 5.90509C321.49 0.617284 314.488 -1.16342 310.475 0.741571C306.461 2.64656 303.559 7.81493 302.283 13.4501C301.007 19.0852 301.155 25.1575 301.711 31.0157C309.093 30.8192 316.475 30.6227 323.439 31.1334Z" fill="#2F2E41"/>
<path d="M310.982 31.1312C315.736 31.1312 319.59 25.7915 319.59 19.2047C319.59 12.6179 315.736 7.27826 310.982 7.27826C306.228 7.27826 302.374 12.6179 302.374 19.2047C302.374 25.7915 306.228 31.1312 310.982 31.1312Z" fill="#FFB8B8"/>
<path d="M321.505 16.7479C321.532 14.7407 321.268 12.7463 320.728 10.8832C320.188 9.02018 319.384 7.32652 318.362 5.90288C317.34 4.47923 316.123 3.35465 314.781 2.59596C313.439 1.83727 312.001 1.45995 310.553 1.48641C309.104 1.51287 307.673 1.94259 306.347 2.75001C305.02 3.55744 303.824 4.72611 302.83 6.18657C301.836 7.64704 301.064 9.3695 300.559 11.2516C300.055 13.1337 299.829 15.1371 299.894 17.1427C307.262 17.1643 314.63 17.186 321.505 16.7479Z" fill="#2F2E41"/>
<path d="M305.002 130.851C313.565 130.798 322.073 132.771 330.157 136.686C330.439 117.886 325.767 99.0515 317.321 84.9613L317.258 84.856L317.29 84.7268C319.546 75.6949 321.878 66.3593 323.962 57.0699L323.93 56.9139C322.469 49.7157 319.332 42.4419 314.341 34.6763C313.8 33.8992 313.065 33.4364 312.286 33.3817C311.508 33.3271 310.743 33.6847 310.148 34.3821C301.276 45.6501 296.453 62.5331 297.559 78.4431L297.563 78.4899L297.553 78.5351C293.645 96.8799 292.226 106.302 290.974 114.616C290.061 120.68 289.271 125.931 287.683 133.434C293.373 131.719 299.179 130.853 305.002 130.851Z" fill="#713519"/>
<path opacity="0.1" d="M317.61 72.8596L304.896 111.21L297.633 101.023L317.61 72.8596Z" fill="black"/>
<path d="M289.073 94.1609L289.959 96.5473C289.967 96.5694 289.969 96.595 289.963 96.6187C289.958 96.6423 289.946 96.6619 289.93 96.6733L289.887 96.7038L294.505 109.135C294.633 109.48 294.657 109.88 294.572 110.248C294.486 110.617 294.299 110.923 294.051 111.1L288.444 115.098C288.321 115.186 288.187 115.239 288.049 115.255C287.912 115.27 287.773 115.248 287.641 115.19C287.51 115.132 287.388 115.038 287.282 114.914C287.177 114.79 287.09 114.639 287.027 114.468L282.571 102.473L282.54 102.495C282.528 102.503 282.515 102.504 282.503 102.499C282.491 102.494 282.481 102.482 282.475 102.466L281.971 101.108C281.968 101.101 281.966 101.092 281.966 101.083C281.965 101.075 281.966 101.066 281.968 101.058C281.97 101.05 281.973 101.042 281.977 101.035C281.981 101.029 281.986 101.023 281.992 101.019L282.023 100.997L281.832 100.485L281.801 100.508C281.789 100.516 281.776 100.518 281.763 100.512C281.751 100.506 281.74 100.494 281.734 100.478L281.236 99.1379C281.23 99.1217 281.229 99.1027 281.233 99.0853C281.237 99.0679 281.246 99.0534 281.258 99.0449L281.289 99.0227L281.03 98.3243L280.998 98.347C280.988 98.3544 280.975 98.3558 280.964 98.3509C280.953 98.346 280.944 98.3351 280.938 98.3207L280.667 97.5895C280.661 97.575 280.66 97.5581 280.664 97.5426C280.668 97.527 280.675 97.5141 280.686 97.5065L280.718 97.4839L280.168 96.0037C280.04 95.6597 280.016 95.2596 280.101 94.8913C280.186 94.5229 280.374 94.2165 280.622 94.0395L286.228 90.0417C286.477 89.8647 286.766 89.8315 287.031 89.9495C287.297 90.0675 287.518 90.327 287.646 90.6709L288.939 94.151L288.982 94.1205C288.998 94.1092 289.016 94.1071 289.033 94.1147C289.05 94.1222 289.064 94.1389 289.073 94.1609Z" fill="#713519"/>
<path d="M287.293 91.2471L294.097 109.563C294.178 109.781 294.193 110.035 294.139 110.269C294.085 110.502 293.966 110.697 293.808 110.809L288.442 114.636C288.284 114.748 288.101 114.77 287.933 114.695C287.764 114.621 287.624 114.457 287.543 114.239L287.542 114.237L280.739 95.9211C280.698 95.813 280.674 95.695 280.667 95.5739C280.66 95.4528 280.67 95.3309 280.696 95.2151C280.723 95.0994 280.766 94.9921 280.823 94.8993C280.88 94.8066 280.949 94.7302 281.027 94.6746L281.83 94.1018L281.883 94.2446C281.916 94.3336 281.962 94.4127 282.017 94.4774C282.072 94.5421 282.136 94.5911 282.204 94.6216C282.273 94.6522 282.346 94.6636 282.418 94.6554C282.49 94.6471 282.56 94.6193 282.624 94.5735L285.353 92.6272C285.483 92.5347 285.581 92.3746 285.625 92.1822C285.67 91.9897 285.657 91.7806 285.591 91.6009L285.538 91.4581L286.394 90.8477C286.551 90.7353 286.734 90.7142 286.903 90.789C287.072 90.8638 287.212 91.0284 287.293 91.2466L287.293 91.2471Z" fill="#454F2C"/>
<path d="M289.265 113.623C289.779 113.574 290.279 113.368 290.73 113.022C291.18 112.676 291.571 112.197 291.873 111.619C292.176 111.042 292.383 110.379 292.481 109.678C292.579 108.977 292.564 108.255 292.439 107.563L302.914 98.0532L296.94 94.4771L287.908 104.056C287.082 104.425 286.383 105.201 285.943 106.236C285.503 107.272 285.352 108.495 285.519 109.675C285.687 110.854 286.16 111.907 286.851 112.635C287.541 113.363 288.4 113.714 289.265 113.623Z" fill="#FFB8B8"/>
<path d="M299.345 106.772L299.213 106.643C296.72 104.1 293.952 101.471 291.275 98.9286L291.115 98.7758L291.241 98.5705C296.954 89.3093 302.674 79.6358 308.206 70.2779C308.201 70.2629 308.198 70.252 308.195 70.2442L308.247 70.2075L308.269 70.1702L308.281 70.1838L308.314 70.1603L308.164 70.1764L306.459 51.6502C304.919 48.7393 304.624 42.96 306.642 38.9257C308.732 34.7465 313.155 33.3479 316.107 35.9313C316.88 36.6506 317.527 37.6016 317.999 38.714C318.471 39.8264 318.756 41.0716 318.834 42.3575C318.944 43.5031 318.867 44.6682 318.611 45.7677C318.354 46.8672 317.923 47.8733 317.349 48.7125C318.074 58.5169 318.102 67.2805 318.129 75.7573L318.129 75.8419L318.091 75.9117C312.194 86.2925 305.716 96.618 299.451 106.604L299.345 106.772Z" fill="#713519"/>
<path d="M124.859 56.1965C135.548 56.1965 144.214 44.1904 144.214 29.3801C144.214 14.5698 135.548 2.56372 124.859 2.56372C114.169 2.56372 105.504 14.5698 105.504 29.3801C105.504 44.1904 114.169 56.1965 124.859 56.1965Z" fill="#454F2C"/>
<path d="M123.014 40.6998L117.221 30.3798L120.59 26.7495L123.333 31.6359L132.599 18.0831L135.698 22.1506L123.014 40.6998Z" fill="white"/>
<path d="M376.069 227.392H278.251C278.143 227.392 278.038 227.333 277.962 227.226C277.885 227.12 277.842 226.976 277.842 226.825C277.842 226.675 277.885 226.531 277.962 226.424C278.038 226.318 278.143 226.258 278.251 226.258H376.069C376.177 226.258 376.281 226.318 376.358 226.424C376.435 226.531 376.478 226.675 376.478 226.825C376.478 226.976 376.435 227.12 376.358 227.226C376.281 227.333 376.177 227.392 376.069 227.392Z" fill="#713519"/>
</svg>
